<?xml version="1.0" standalone="no"?>
<!DOCTYPE svg PUBLIC "-//W3C//DTD SVG 1.1//EN" "http://www.w3.org/Graphics/SVG/1.1/DTD/svg11.dtd" >
<svg>
<metadata>
Created by FontForge 20090622 at Wed Jun 22 23:21:39 2016
 By deploy user
Copyright (c) 2010, Yanone (http://yanone.de/typedesign/). All rights reserved.
This Font Software is licensed under the SIL Open Font License, Version 1.1.
This license is available with a FAQ at: http://scripts.sil.org/OFL
</metadata>
<defs>
<font id="YanoneKaffeesatz-Light" horiz-adv-x="432" >
  <font-face 
    font-family="Yanone Kaffeesatz Light"
    font-weight="300"
    font-stretch="normal"
    units-per-em="1000"
    panose-1="2 0 0 0 0 0 0 0 0 0"
    ascent="800"
    descent="-200"
    x-height="500"
    cap-height="700"
    bbox="-122 -200 941 955"
    underline-thickness="50"
    underline-position="-19"
    unicode-range="U+0020-U+FB04"
  />
<missing-glyph horiz-adv-x="254" 
 />
    <glyph glyph-name="fi" unicode="fi" horiz-adv-x="397" 
d="M341 500v-487q0 -10 -7 -11.5t-49 -1.5v473q0 19 10 23t46 4zM87 452h-76q0 34 2 41t14 7h60v63q0 47 11 80.5t26.5 51.5t40 28.5t44.5 13t47 2.5q102 0 102 -36q0 -15 -7 -33q-41 19 -94 19q-25 0 -42 -3.5t-35.5 -15.5t-28 -39t-9.5 -69v-62h84q0 -34 -2 -41t-12 -7
h-70v-439q0 -13 -14 -13h-41v452z" />
    <glyph glyph-name="fl" unicode="fl" horiz-adv-x="407" 
d="M86 452h-76q0 34 2 41t14 7h60v63q0 57 14.5 95t40 54t46.5 21t48 5q64 0 115 -28v-697q0 -13 -14 -13h-41v682q-27 9 -57 9q-19 0 -31.5 -3t-30 -13.5t-26.5 -37t-9 -68.5v-69h100q0 -34 -2 -41t-12 -7h-86v-439q0 -13 -13 -13h-42v452z" />
    <glyph glyph-name=".notdef" horiz-adv-x="254" 
 />
    <glyph glyph-name=".notdef" horiz-adv-x="254" 
 />
    <glyph glyph-name=".null" horiz-adv-x="0" 
 />
    <glyph glyph-name="nonmarkingreturn" horiz-adv-x="333" 
 />
    <glyph glyph-name="space" unicode=" " horiz-adv-x="172" 
 />
    <glyph glyph-name="exclam" unicode="!" horiz-adv-x="189" 
d="M51 40q0 19 11.5 32t31.5 13q22 0 33 -12.5t11 -32.5t-12 -32.5t-32 -12.5q-43 0 -43 45zM68 191l-7 500q0 10 14 13t57 3l-9 -491q-1 -16 -12 -20.5t-43 -4.5z" />
    <glyph glyph-name="quotedbl" unicode="&#x22;" horiz-adv-x="243" 
d="M76 585l-31 -1q-2 11 -6 72.5t-4 97.5q0 28 3 29q13 6 54 1q1 -39 -5 -117t-11 -82zM191 585l-31 -1q-2 11 -6 72.5t-4 97.5q0 28 3 29q13 6 54 1q1 -39 -5 -117t-11 -82z" />
    <glyph glyph-name="numbersign" unicode="#" 
d="M381 199h-67l-4 -79q-1 -9 -10.5 -11t-40.5 -2l5 92h-113l-4 -79q-1 -9 -10 -11t-40 -2l5 92h-64q0 41 6 45q3 1 7 1h53l7 124h-73q0 41 6 45q3 1 7 1h62l4 72q1 9 10 11t40 2l-5 -85h113l4 72q1 9 10 11t41 2l-5 -85h70q0 -31 -2 -38.5t-12 -7.5h-58l-7 -124h79
q0 -31 -2 -38.5t-12 -7.5zM160 369l-7 -124h113l7 124h-113z" />
    <glyph glyph-name="dollar" unicode="$" 
d="M186 -122v115q-39 1 -68 9t-40.5 17t-11.5 16q0 6 5.5 21t12.5 22q37 -31 111 -31q114 0 114 108q0 32 -15 59t-52 63l-112 105q-62 60 -62 115q0 50 35 81t98 37v97q0 15 11 20t39 5v-121q34 -2 60.5 -9t36.5 -13.5t10 -9.5q0 -25 -16 -40q-34 23 -104 23
q-111 0 -111 -71q0 -38 52 -88l123 -114q65 -62 65 -140q0 -140 -132 -158v-94q0 -14 -10.5 -19t-38.5 -5z" />
    <glyph glyph-name="percent" unicode="%" horiz-adv-x="712" 
d="M61 524q0 184 141 184q69 0 101 -40t32 -143q0 -185 -138 -185q-35 0 -58 7t-42 26t-27.5 56t-8.5 95zM114 520q0 -79 19.5 -107.5t62.5 -28.5q87 0 87 141q0 80 -19.5 109t-61.5 29q-88 0 -88 -143zM377 176q0 184 141 184q69 0 101 -40t32 -143q0 -185 -138 -185
q-35 0 -58 7t-42 26t-27.5 56t-8.5 95zM429 171q0 -79 20 -107.5t63 -28.5q87 0 87 141q0 80 -19.5 109t-61.5 29q-89 0 -89 -143zM159 -8q-34 7 -34 22l421 694q32 -9 32 -25q0 -3 -105 -175.5l-209 -343.5z" />
    <glyph glyph-name="ampersand" unicode="&#x26;" horiz-adv-x="513" 
d="M236 706q61 0 102.5 -14t41.5 -30q0 -24 -13 -39q-50 34 -126 34q-53 0 -83.5 -20t-30.5 -76q0 -59 72.5 -175.5t165.5 -226.5q17 54 17 122q0 75 -23.5 131t-60.5 85q39 6 105 6q62 0 88 -2q2 -6 2 -22q0 -13 -8 -18.5t-33 -5.5l-72 1q55 -64 55 -183q0 -92 -29 -160
q53 -59 84 -78q-2 -14 -13 -29t-22 -15q-16 0 -79 70q-55 -71 -157 -71q-183 0 -183 182q0 59 33 108t82 77q-82 137 -82 211q0 71 45.5 104.5t121.5 33.5zM338 103q-86 98 -161 213q-84 -48 -84 -147q0 -53 28 -90t95 -37q78 0 122 61z" />
    <glyph glyph-name="quotesingle" unicode="'" horiz-adv-x="128" 
d="M76 585l-31 -1q-2 11 -6 72.5t-4 97.5q0 28 3 29q13 6 54 1q1 -39 -5 -117t-11 -82z" />
    <glyph glyph-name="parenleft" unicode="(" horiz-adv-x="294" 
d="M125 324q0 -169 47.5 -296.5t98.5 -185.5q-9 -40 -31 -40q-6 0 -24 20.5t-43.5 64.5t-48.5 102.5t-39 147t-16 185.5q0 92 17 175.5t40.5 137t49 94t43 58.5t22.5 18q21 0 30 -36q-145 -173 -146 -445z" />
    <glyph glyph-name="parenright" unicode=")" horiz-adv-x="294" 
d="M169 324q-1 154 -45 267t-101 178q9 36 30 36q5 0 22 -17.5t42.5 -57.5t49.5 -93.5t40.5 -137.5t16.5 -177q0 -94 -16 -181.5t-39 -146.5t-48 -104t-43 -66.5t-24 -21.5q-22 0 -31 40q22 28 44 66.5t46.5 98t40 143t15.5 174.5z" />
    <glyph glyph-name="asterisk" unicode="*" horiz-adv-x="472" 
d="M265 676l-15 -165q-2 -17 -27 -12l-16 171q-1 13 19.5 14.5t38.5 -8.5zM277 491l156 74q15 -11 18.5 -32.5t-10.5 -25.5l-166 -48q-17 22 2 32zM61 561l140 -77q1 -13 -4 -19t-14 -2l-162 50q-1 23 13.5 38.5t26.5 9.5zM335 250l-87 162q-4 8 -0.5 13t17.5 10l112 -144
q9 -12 -6 -25t-36 -16zM75 294l119 133q13 13 28 -6l-97 -156q-12 -12 -27 -1t-23 30z" />
    <glyph glyph-name="plus" unicode="+" 
d="M378 257h-136v-137q0 -9 -9 -11t-41 -2v150h-150v24t1.5 14.5t4 9.5t7.5 2h137v136q0 10 9.5 12t40.5 2v-150h150q0 -31 -2 -40.5t-12 -9.5z" />
    <glyph glyph-name="comma" unicode="," horiz-adv-x="180" 
d="M55 43q0 18 11 29.5t28 11.5q41 0 41 -47q0 -44 -26 -94.5t-41 -50.5q-18 0 -23 18q28 48 30 93q-20 12 -20 40z" />
    <glyph glyph-name="hyphen" unicode="-" horiz-adv-x="290" 
d="M233 257h-190v24t1.5 14.5t4 9.5t7.5 2h191q0 -31 -2 -40.5t-12 -9.5z" />
    <glyph glyph-name="period" unicode="." horiz-adv-x="180" 
d="M49 40q0 19 11.5 32t30.5 13q44 0 44 -45q0 -19 -12 -32t-32 -13q-42 0 -42 45z" />
    <glyph glyph-name="slash" unicode="/" horiz-adv-x="307" 
d="M297 765l-225 -770q-4 -11 -13.5 -13t-48.5 -2l226 768q4 12 13 14.5t48 2.5z" />
    <glyph glyph-name="zero" unicode="0" 
d="M36 296q0 152 44 228t141 76q95 0 135 -70t40 -221q0 -161 -42 -239t-140 -78q-96 0 -137 73t-41 231zM95 289q0 -132 28 -189.5t91 -57.5q67 0 96 65.5t29 204.5q0 124 -25.5 181t-89.5 57q-69 0 -99 -65.5t-30 -195.5z" />
    <glyph glyph-name="one" unicode="1" 
d="M78 519q-8 11 -8 40q0 6 81.5 24t97.5 18q8 0 16 -4l-12 -545h88l55 3q0 -55 -9 -55h-350q-1 9 -1 41q0 11 158 11l14 491z" />
    <glyph glyph-name="two" unicode="2" 
d="M65 508q-7 18 -7 42q0 9 21 20.5t63 20.5t90 9q83 0 113.5 -31.5t30.5 -99.5q0 -54 -29 -110t-66 -97.5l-89.5 -102t-82.5 -107.5h185l102 4q0 -56 -10 -56h-346q-4 8 -4 21q0 6 0.5 10.5t3 10t4.5 8.5t7.5 12l8.5 14q28 46 77 103l85.5 96.5t64.5 91t28 98.5
q0 40 -20 61t-71 21q-100 0 -159 -39z" />
    <glyph glyph-name="three" unicode="3" 
d="M242 303q63 -6 103 -41.5t40 -108.5q0 -115 -62 -184t-163 -69q-53 0 -82 14t-29 30q0 20 7 43q40 -34 106 -34q74 0 119 56.5t45 143.5q0 28 -9.5 49t-24 33t-37 19.5t-44 10t-49.5 3.5l-1 37q140 78 140 167q0 75 -89 75q-96 0 -155 -40q-6 14 -6 41q0 11 19.5 23
t60.5 20.5t92 8.5q139 0 139 -116q0 -97 -120 -181z" />
    <glyph glyph-name="four" unicode="4" 
d="M316 597l-3 -391l86 2l2 -21q0 -33 -18 -33h-70v-134q0 -15 -6.5 -17.5t-48.5 -2.5v154h-205q-15 15 -15 43q0 50 76 192.5t146 205.5q10 9 26 9q12 0 30 -7zM88 206h170l9 323q-52 -57 -106 -150t-73 -173z" />
    <glyph glyph-name="five" unicode="5" 
d="M76 600h306q0 -33 -5 -41.5t-26 -8.5l-227 2l-19 -173q28 7 70 7q36 1 68 -5.5t67 -25t56 -60t21 -101.5q0 -294 -231 -294q-37 0 -65 7.5t-40 16.5t-12 16q0 25 7 46q37 -34 108 -34q92 0 133.5 64.5t41.5 170.5q0 152 -176 152q-18 0 -37.5 -2.5t-31 -5t-23.5 -5.5
t-13 -3z" />
    <glyph glyph-name="six" unicode="6" 
d="M268 649q-75 0 -123 -75.5t-54 -226.5q50 91 156 91q69 0 110 -48t41 -146q0 -253 -190 -253q-43 0 -74 15t-49.5 39.5t-29 65.5t-14 83.5t-3.5 102.5q0 109 18 189t50 126t72.5 67.5t89.5 21.5q109 0 109 -30q0 -21 -5 -39q-43 17 -104 17zM232 386q-88 0 -141 -99
q-2 -121 24 -183t95 -62q64 0 99 51.5t35 137.5q0 155 -112 155z" />
    <glyph glyph-name="seven" unicode="7" 
d="M52 600h360q-213 -350 -272 -685q-56 0 -56 14q35 182 105 351t141 271q-40 -2 -261 -2q-17 0 -17 51z" />
    <glyph glyph-name="eight" unicode="8" 
d="M219 706q174 0 174 -161q0 -101 -120 -173q35 -22 62 -45q65 -60 65 -146q0 -87 -44.5 -138t-129.5 -51q-94 0 -140 51.5t-46 137.5q0 64 36 116.5t90 79.5q-45 26 -64 44q-55 41 -55 116q0 82 49 125.5t123 43.5zM288 301q-23 20 -69 47q-54 -20 -90.5 -64.5
t-36.5 -99.5q0 -63 34 -101.5t97 -38.5q58 0 91 37.5t33 99.5q0 69 -59 120zM224 654q-53 0 -88 -28.5t-35 -85.5q0 -60 55 -98q14 -11 68 -42q117 57 117 143q0 62 -34.5 86.5t-82.5 24.5z" />
    <glyph glyph-name="nine" unicode="9" 
d="M139 -51q187 0 203 301q-50 -91 -152 -91q-68 0 -111 50.5t-43 146.5q0 254 190 254q102 0 135 -67.5t35 -237.5q-1 -208 -63 -308t-189 -100q-84 0 -84 24q0 23 4 37q33 -9 75 -9zM205 211q83 0 139 99v2q0 60 -4 100t-15.5 76t-36 53.5t-61.5 17.5q-137 0 -137 -194
q0 -77 30.5 -115.5t84.5 -38.5z" />
    <glyph glyph-name="colon" unicode=":" horiz-adv-x="180" 
d="M49 386q0 19 11.5 32t30.5 13q44 0 44 -45q0 -19 -12 -32t-32 -13q-42 0 -42 45zM49 40q0 19 11.5 32t30.5 13q44 0 44 -45q0 -19 -12 -32t-32 -13q-42 0 -42 45z" />
    <glyph glyph-name="semicolon" unicode=";" horiz-adv-x="180" 
d="M50 386q0 19 11.5 32t30.5 13q44 0 44 -45q0 -19 -12 -32t-32 -13q-42 0 -42 45zM52 43q0 18 11 29.5t29 11.5q41 0 41 -47q0 -44 -26.5 -94.5t-41.5 -50.5q-19 0 -23 18q28 46 30 93q-20 12 -20 40z" />
    <glyph glyph-name="less" unicode="&#x3c;" horiz-adv-x="400" 
d="M340 368l-224 -110l238 -104q-1 -19 -9 -31.5t-17 -12.5q-4 0 -23 7l-251 110q-10 14 -10 33q0 21 19 31l268 131q19 -18 19 -37q0 -13 -10 -17z" />
    <glyph glyph-name="equal" unicode="=" 
d="M378 344h-336v24t1.5 14.5t4 9.5t7.5 2h337q0 -32 -2 -41t-12 -9zM378 170h-336v24t1.5 14.5t4 9.5t7.5 2h337q0 -32 -2 -41t-12 -9z" />
    <glyph glyph-name="greater" unicode="&#x3e;" horiz-adv-x="400" 
d="M61 158l224 110l-237 104q0 18 8 31t17 13q5 0 24 -7l251 -110q9 -15 9 -33q0 -22 -19 -31l-268 -132q-19 19 -19 37q0 14 10 18z" />
    <glyph glyph-name="question" unicode="?" horiz-adv-x="295" 
d="M87 40q0 19 11.5 32t30.5 13q44 0 44 -45q0 -19 -12 -32t-32 -13q-42 0 -42 45zM143 710q61 0 100.5 -33.5t39.5 -108.5q0 -40 -14 -78t-31 -61.5l-40 -53.5t-32 -47q-19 -30 -19 -68q0 -13 2.5 -27.5t4 -19.5t-0.5 -10q-9 -11 -50 -6q-11 25 -11 61q0 46 23 87
q12 22 43.5 63.5t48.5 76t17 74.5q0 96 -96 96q-58 0 -96 -30q-7 17 -7 44q0 14 37 27.5t81 13.5z" />
    <glyph glyph-name="at" unicode="@" horiz-adv-x="754" 
d="M648 344q0 157 -55.5 224t-189.5 67q-145 0 -220 -86.5t-75 -290.5q0 -101 13.5 -173.5t35.5 -115t59 -66.5t75 -31.5t92 -7.5q126 0 234 52q15 -25 15 -42q0 -11 -28.5 -25t-87.5 -26t-128 -12q-45 0 -77 3t-69.5 14t-63 30t-51 52.5t-40.5 81t-24.5 116t-9.5 156.5
q0 219 93 320t258 101q153 0 226 -78t73 -253q0 -94 -13 -163t-30.5 -104t-42 -55.5t-41 -25t-33.5 -4.5q-38 0 -63 25q-38 -26 -111 -26q-62 -1 -95 29.5t-31 121.5q2 89 42 124.5t108 35.5q40 0 61 -8q1 37 2 63q1 45 -19 61.5t-61 16.5q-65 0 -107 -24q-6 12 -6 31
q0 11 9 17q37 24 122 24q59 0 87 -27t26 -91l-6 -215q-4 -83 -5 -97q20 -12 42 -12q11 0 23.5 6t28.5 25.5t28.5 50t21 85.5t8.5 126zM447 88l6 179q-22 5 -49 5q-51 0 -79.5 -27t-29.5 -95q-2 -63 18.5 -84.5t61.5 -21.5q27 0 49 12t23 32z" />
    <glyph glyph-name="A" unicode="A" horiz-adv-x="436" 
d="M372 0l-50 193h-208l-46 -182q-2 -12 -27 -12q-20 0 -34 2l189 694q2 9 19 9q15 0 24 -3l189 -688q2 -8 -3 -11t-20 -3q-19 0 -33 1zM175 429l-48 -185h181l-48 185q-38 148 -42 196q-7 -62 -43 -196z" />
    <glyph glyph-name="B" unicode="B" horiz-adv-x="392" 
d="M55 0v683q0 17 25 17h100q167 0 167 -152q0 -79 -30 -117.5t-68 -44.5q19 -1 37 -7.5t38 -21t32.5 -45t12.5 -73.5q0 -57 -13 -101t-32.5 -69.5t-46.5 -41.5t-51 -21.5t-49 -5.5h-122zM110 651v-246h75q103 0 103 133q0 113 -107 113h-71zM110 357v-307h67q56 0 92.5 43
t36.5 141q0 42 -9 67.5t-29 37t-39.5 15t-51.5 3.5h-67z" />
    <glyph glyph-name="C" unicode="C" horiz-adv-x="353" 
d="M233 711q45 0 69 -16t24 -34t-10 -34q-35 31 -75 31q-24 0 -42.5 -6.5t-38.5 -27.5t-33.5 -57t-22 -100t-8.5 -151q0 -82 9.5 -137.5t27.5 -82.5t37 -37t45 -10q32 0 61 13.5t43 30.5q10 -18 10 -35q0 -25 -36.5 -47t-87.5 -22q-29 0 -49 5t-44 24t-38.5 53t-24.5 96.5
t-10 149.5q0 101 12 175.5t30 115.5t45.5 65t51.5 31t55 7z" />
    <glyph glyph-name="D" unicode="D" horiz-adv-x="414" 
d="M81 700h100q99 0 146.5 -72t47.5 -241q0 -114 -14.5 -192.5t-42.5 -119.5t-61.5 -58t-79.5 -17h-121v683q0 17 25 17zM315 391q0 140 -32 199t-103 59h-69v-596h67q23 0 41 6.5t37 27.5t31 57t20 98.5t8 148.5z" />
    <glyph glyph-name="E" unicode="E" horiz-adv-x="337" 
d="M111 51h197q0 -36 -1.5 -43.5t-10.5 -7.5h-239v686q0 14 13 14h239q0 -47 -5 -50q-2 -1 -5 -1h-188v-241h176q0 -34 -1.5 -42.5t-10.5 -8.5h-164v-306z" />
    <glyph glyph-name="F" unicode="F" horiz-adv-x="327" 
d="M99 0h-42v686q0 14 13 14h239q0 -46 -5 -48q-2 -1 -5 -1h-188v-242h176q0 -35 -1.5 -43.5t-10.5 -8.5h-164v-344q1 -13 -12 -13z" />
    <glyph glyph-name="G" unicode="G" horiz-adv-x="399" 
d="M247 710q45 0 75 -14t30 -32q0 -16 -8 -34q-35 27 -87 27q-55 0 -89 -25.5t-54 -96.5t-20 -193q0 -96 9.5 -158t28.5 -91t40 -39t53 -10t54 12.5t28 25.5v269h-98v34q0 13 15 13h135v-352q-53 -56 -136 -56q-38 0 -65 8t-51.5 30.5t-39 61.5t-23 101t-8.5 148
q0 112 14.5 187t44 114t65.5 54.5t87 15.5z" />
    <glyph glyph-name="H" unicode="H" 
d="M322 0v355h-212v-342q0 -10 -7 -11.5t-48 -1.5v686q0 10 7 12t48 2v-293h212v279q0 10 7 12t48 2v-687q0 -10 -7 -11.5t-48 -1.5z" />
    <glyph glyph-name="I" unicode="I" horiz-adv-x="165" 
d="M54 0v672q0 21 7.5 24.5t48.5 3.5v-687q0 -10 -7 -11.5t-49 -1.5z" />
    <glyph glyph-name="J" unicode="J" horiz-adv-x="302" 
d="M192 184v489q0 20 7 23.5t48 3.5v-532q0 -30 -2.5 -53t-10 -47.5t-21 -40.5t-37 -26.5t-55.5 -10.5q-48 0 -74 16t-26 37q0 18 10 34q34 -36 84 -36q26 0 42 10t23.5 32.5t9.5 43.5t2 57z" />
    <glyph glyph-name="K" unicode="K" horiz-adv-x="393" 
d="M54 0v686q0 10 7 12t48 2v-305l201 302q13 3 35 3q33 0 21 -19l-201 -286q134 -86 203 -379q2 -10 -2.5 -13.5t-18.5 -3.5q-24 0 -36 1q-40 136 -75 210t-78 117q-17 17 -49 32v-346q0 -10 -7 -11.5t-48 -1.5z" />
    <glyph glyph-name="L" unicode="L" horiz-adv-x="329" 
d="M111 700v-648h198v-39q0 -13 -14 -13h-240v680q0 15 7 17.5t49 2.5z" />
    <glyph glyph-name="M" unicode="M" horiz-adv-x="498" 
d="M55 0v686q0 14 13 14h37l109 -351l35 -120l34 117l105 340q5 14 14 14h42v-687q0 -10 -7 -11.5t-49 -1.5l2 289l9 282l-75 -250l-58 -170q-3 -9 -11 -9h-26l-56 179q-2 5 -15 47.5l-31.5 104l-28.5 94.5q9 -210 10 -271l1 -283q0 -10 -7.5 -11.5t-46.5 -1.5z" />
    <glyph glyph-name="N" unicode="N" horiz-adv-x="456" 
d="M350 0l-123 281q-28 66 -122 313q4 -148 4 -336v-245q0 -10 -6.5 -11.5t-47.5 -1.5v686q0 14 13 14h39l120 -276q19 -53 124 -316q-5 75 -5 341v237q0 10 7 12t48 2v-687q0 -13 -13 -13h-38z" />
    <glyph glyph-name="O" unicode="O" horiz-adv-x="446" 
d="M38 355q0 191 46.5 273t145.5 82q98 0 138 -78t40 -276q0 -200 -44.5 -283t-144.5 -83q-99 0 -140 79t-41 286zM99 338q0 -159 27.5 -225t94.5 -66q69 0 98.5 70.5t29.5 239.5q0 165 -27 231t-94 66t-98 -72.5t-31 -243.5z" />
    <glyph glyph-name="P" unicode="P" horiz-adv-x="370" 
d="M55 0v686q0 14 13 14h104q175 0 175 -190q0 -109 -48 -161.5t-131 -52.5h-59v-283q0 -10 -6.5 -11.5t-47.5 -1.5zM287 514q0 136 -110 136h-68v-302h63q115 0 115 166z" />
    <glyph glyph-name="Q" unicode="Q" horiz-adv-x="446" 
d="M38 355q0 191 46.5 273t145.5 82q98 0 138 -78t40 -276q0 -174 -33.5 -258.5t-106.5 -101.5q8 -46 22 -64.5t39 -18.5q37 0 65 17q9 -12 9 -30q0 -16 -26.5 -25t-57.5 -9q-45 0 -71.5 29t-41.5 95q-61 3 -97 37t-53.5 112.5t-17.5 215.5zM99 338q0 -159 27.5 -225
t94.5 -66q69 0 98.5 70.5t29.5 239.5q0 165 -27 231t-94 66t-98 -72.5t-31 -243.5z" />
    <glyph glyph-name="R" unicode="R" horiz-adv-x="379" 
d="M55 0v686q0 14 13 14h104q175 0 175 -190q0 -158 -103 -201q85 -111 101 -294q1 -9 -4 -12t-23 -4q-18 0 -31 1q-21 200 -97 297q-7 -1 -22 -1h-59v-283q0 -10 -6.5 -11.5t-47.5 -1.5zM287 512q0 138 -110 138h-68v-302h63q115 0 115 164z" />
    <glyph glyph-name="S" unicode="S" horiz-adv-x="369" 
d="M203 710q62 0 94 -13t32 -31t-15 -33q-36 27 -107 27q-52 0 -83 -23t-31 -61q0 -46 55 -108l119 -123q41 -44 56.5 -82.5t15.5 -89.5q0 -84 -42 -133.5t-132 -49.5q-63 0 -97.5 17t-34.5 36q0 23 16 39q38 -36 112 -36q120 0 120 122q0 42 -15.5 76t-54.5 76l-108 113
q-68 76 -68 142q0 60 44.5 97.5t123.5 37.5z" />
    <glyph glyph-name="T" unicode="T" horiz-adv-x="367" 
d="M347 648h-138v-635q0 -10 -7 -11.5t-48 -1.5v648h-147v38q0 14 13 14h340v-39q0 -13 -13 -13z" />
    <glyph glyph-name="U" unicode="U" horiz-adv-x="458" 
d="M111 700v-487q0 -32 2 -54.5t9.5 -46t21 -38t36.5 -23.5t56 -9q70 0 112 21v624q0 10 7.5 11.5t48.5 1.5v-675q-21 -14 -68.5 -24.5t-99.5 -10.5q-48 0 -82 12.5t-53 31.5t-29.5 50.5t-13.5 60.5t-3 70v471q0 10 7 12t49 2z" />
    <glyph glyph-name="V" unicode="V" horiz-adv-x="421" 
d="M7 681q-3 10 -1 14.5t12 4.5h44l111 -438q16 -70 42 -212q23 139 39 212l101 418q3 20 16 20h45l-171 -706q-36 -3 -43 -3q-21 0 -36 59z" />
    <glyph glyph-name="W" unicode="W" horiz-adv-x="643" 
d="M6 681q-3 19 12 19h44l92 -439q16 -88 30 -194h4q6 79 27 194l77 383q3 19 16 19h39l88 -402q8 -37 13 -68.5t10 -69.5t7 -55h4q14 125 27 193l82 419q3 20 16 20h45l-141 -706q-24 -3 -43 -3q-18 0 -30 51l-75 324q-8 34 -30 190l-28 -189l-78 -373q-26 -2 -46 -2
q-17 0 -30 60z" />
    <glyph glyph-name="X" unicode="X" horiz-adv-x="426" 
d="M397 700l-145 -337l162 -352q5 -11 -8 -11h-57l-68 150l-70 165q-35 -87 -71 -164l-68 -144q-4 -7 -14 -7h-48l168 363l-141 327q-3 8 6 9q8 1 57 1l51 -121q36 -84 67 -169q25 65 69 169l48 111q3 8 10 9t52 1z" />
    <glyph glyph-name="Y" unicode="Y" horiz-adv-x="361" 
d="M155 0v284l-149 407q-2 7 6 8t56 1l48 -143q19 -52 42 -128t26 -94q8 53 68 223l44 132q2 7 10 8.5t50 1.5l-146 -414v-273q0 -10 -6.5 -11.5t-48.5 -1.5z" />
    <glyph glyph-name="Z" unicode="Z" horiz-adv-x="393" 
d="M50 648v38q0 14 14 14h298q6 -8 6 -19q0 -13 -6 -28l-278 -603h225q37 0 53 6v-43q0 -13 -13 -13h-317q-9 7 -9 22q0 14 5 27l275 601h-212q-31 0 -41 -2z" />
    <glyph glyph-name="bracketleft" unicode="[" horiz-adv-x="415" 
d="M192 821h213q0 -34 -3.5 -42t-19.5 -8h-178v-917h200q0 -36 -4.5 -44t-19.5 -8h-231v999q0 13 7 16.5t36 3.5z" />
    <glyph glyph-name="backslash" unicode="\" horiz-adv-x="303" 
d="M64 765l228 -780q3 -11 -5.5 -13t-47.5 -2l-228 778q-3 12 5.5 14.5t47.5 2.5z" />
    <glyph glyph-name="bracketright" unicode="]" horiz-adv-x="415" 
d="M222 -200h-212q0 34 3.5 42t19.5 8h178v920h-200q0 36 4.5 44t19.5 8h231v-1002q0 -13 -7.5 -16.5t-36.5 -3.5z" />
    <glyph glyph-name="asciicircum" unicode="^" horiz-adv-x="430" 
d="M213 316l-108 -93q-15 -11 -22 -11q-11 0 -18 8.5t-8 20.5l161 146l142 -130q10 -9 10 -18q0 -11 -8 -19t-20 -9z" />
    <glyph glyph-name="underscore" unicode="_" horiz-adv-x="383" 
d="M353 -94h-337q0 32 2 41t12 9h336v-24t-1.5 -14.5t-4 -9.5t-7.5 -2z" />
    <glyph glyph-name="grave" unicode="`" horiz-adv-x="162" 
d="M141 583q-3 0 -68.5 49.5t-72.5 56.5q2 13 9.5 28t16.5 15q3 0 65.5 -53t70.5 -64q-11 -32 -21 -32z" />
    <glyph glyph-name="a" unicode="a" horiz-adv-x="367" 
d="M36 464q0 14 8 20q16 10 61 18t96 8q62 0 91 -27.5t29 -93.5v-60q0 -173 -5 -303q-59 -36 -136 -36q-25 0 -43 2t-38.5 10.5t-33 24.5t-21 44t-8.5 68q0 51 12 85t35 50t46.5 22t55.5 6q53 0 82 -12v88q0 46 -20 62.5t-59 16.5q-88 0 -144 -25q-8 16 -8 32zM267 249
q-27 10 -65 10q-52 0 -80.5 -23t-28.5 -95q0 -34 7 -56t22 -31.5t29 -12.5t37 -3q50 0 74 22q5 70 5 189z" />
    <glyph glyph-name="b" unicode="b" horiz-adv-x="401" 
d="M58 20v688q0 19 9.5 23t45.5 4v-266q51 41 124 41q64 -1 97.5 -45t33.5 -147q0 -84 -13 -146t-32 -96t-46.5 -54.5t-51 -26t-52.5 -5.5q-77 0 -115 30zM113 420v-362q20 -18 67 -18q128 0 128 263q0 87 -22.5 121.5t-72.5 34.5q-61 0 -100 -39z" />
    <glyph glyph-name="c" unicode="c" horiz-adv-x="331" 
d="M304 470q0 -16 -7 -33q-33 23 -78 23q-19 0 -34 -4t-32.5 -17.5t-29 -36.5t-19.5 -65.5t-8 -100.5q0 -115 27 -155.5t82 -40.5q58 0 92 30q7 -17 7 -32q0 -18 -33 -33t-81 -15q-37 0 -62 9t-46.5 34.5t-31.5 76.5t-10 129q0 69 11.5 120t28.5 79.5t42 45t47.5 21.5
t50.5 5q35 0 59.5 -12t24.5 -28z" />
    <glyph glyph-name="d" unicode="d" horiz-adv-x="402" 
d="M290 60l-1 381q-25 20 -66 20q-54 0 -88.5 -52.5t-34.5 -167.5q0 -85 15 -130.5t36 -57.5t57 -13q51 0 82 20zM289 488v220q0 19 10 23t46 4v-715q-58 -30 -142 -30q-38 0 -63.5 8t-50 31.5t-36.5 75t-12 131.5q0 137 46.5 205.5t119.5 68.5q51 0 82 -22z" />
    <glyph glyph-name="e" unicode="e" horiz-adv-x="375" 
d="M217 510q126 0 126 -158q0 -73 -10 -120q-89 -18 -239 -18q0 -70 15.5 -108.5t39 -50t62.5 -11.5q72 0 120 34q7 -18 7 -39q0 -18 -41 -33.5t-95 -15.5q-39 0 -66 8.5t-51 32t-35.5 71.5t-11.5 121q0 74 11 128t27.5 84t42 47.5t47.5 22.5t51 5zM212 460q-22 0 -39 -7
t-35 -26t-29.5 -61.5t-13.5 -105.5q134 0 190 14q4 32 4 67q-1 63 -17.5 91t-59.5 28z" />
    <glyph glyph-name="f" unicode="f" horiz-adv-x="248" 
d="M91 452h-76q0 34 2 41t13 7h61v63q0 45 10.5 78t26 51t38.5 29.5t43 14.5t45 3q86 0 86 -31q0 -11 -6 -31q-33 12 -74 12q-24 0 -41.5 -4t-35.5 -15.5t-27.5 -38t-9.5 -66.5v-65h104q0 -34 -2 -41t-12 -7h-90v-439q0 -13 -14 -13h-41v452z" />
    <glyph glyph-name="g" unicode="g" horiz-adv-x="403" 
d="M214 510q21 0 45 -6h124q6 -15 6 -26q0 -22 -23 -22q-26 0 -54 6q55 -36 55 -124q0 -83 -39.5 -133.5t-122.5 -50.5q-35 0 -57 7q-42 -34 -42 -57t145 -41q65 -9 99.5 -32.5t34.5 -77.5q0 -63 -50 -106.5t-144 -43.5q-158 0 -158 106q0 35 23.5 68t58.5 58
q-32 9 -49.5 22.5t-16.5 30.5q0 38 63 88q-63 39 -63 153q0 90 45.5 135.5t119.5 45.5zM212 467q-47 0 -76.5 -34.5t-29.5 -102.5q0 -64 21 -97.5t82 -33.5q51 0 77 41.5t26 108.5q0 118 -100 118zM217 19q-38 4 -56 7q-29 -20 -50.5 -49.5t-21.5 -56.5q0 -32 22 -49t85 -17
t98 28t35 64q0 38 -26 52.5t-86 20.5z" />
    <glyph glyph-name="h" unicode="h" horiz-adv-x="396" 
d="M54 0v708q0 19 9.5 23t45.5 4v-268q54 43 127 43q67 0 91 -33t24 -101v-363q0 -10 -7.5 -11.5t-48.5 -1.5v364q0 46 -17 70t-63 24q-63 0 -106 -40v-405q0 -10 -7 -11.5t-48 -1.5z" />
    <glyph glyph-name="i" unicode="i" horiz-adv-x="171" 
d="M114 500v-487q0 -10 -7.5 -11.5t-49.5 -1.5v473q0 19 10.5 23t46.5 4zM55 669q0 46 33 46q31 0 31 -45q-2 -47 -34 -47q-31 0 -30 46z" />
    <glyph glyph-name="j" unicode="j" horiz-adv-x="182" 
d="M119 500v-537q0 -76 -26 -117t-97 -41q-51 0 -80 13.5t-29 32.5t9 31q43 -26 96 -26q45 0 58.5 26.5t13.5 91.5v499q0 19 9.5 23t45.5 4zM62 669q0 46 33 46q31 0 31 -45q-2 -47 -34 -47q-31 0 -30 46z" />
    <glyph glyph-name="k" unicode="k" horiz-adv-x="392" 
d="M57 0v708q0 19 9.5 23t45.5 4v-286q29 29 68.5 45t72.5 16q88 0 88 -88q0 -31 -12 -59.5t-31.5 -48t-33.5 -30.5t-28 -19q40 -7 76 -45t46 -107q3 -21 3 -46t-3 -53q-2 -11 -10 -12q-8 -2 -52 -2q4 31 4 62q0 48 -9 79q-16 56 -51.5 76.5t-68.5 12.5l-59 -22v-195
q0 -10 -6.5 -11.5t-48.5 -1.5zM281 408q0 51 -51 51q-64 0 -118 -64v-144q169 58 169 157z" />
    <glyph glyph-name="l" unicode="l" horiz-adv-x="170" 
d="M112 735v-722q0 -10 -7 -11.5t-48 -1.5v708q0 19 9.5 23t45.5 4z" />
    <glyph glyph-name="m" unicode="m" horiz-adv-x="592" 
d="M272 0v391q-2 38 -15 54t-53 16q-45 0 -92 -22v-426q0 -10 -7.5 -11.5t-47.5 -1.5v477q75 33 148 33q69 0 96 -36q56 36 127 36q69 0 90.5 -33.5t21.5 -111.5v-352q0 -10 -7 -11.5t-48 -1.5v368q0 52 -13 72t-53 20q-51 0 -92 -27v-420q0 -9 -5 -11h-1q-6 -2 -49 -2z" />
    <glyph glyph-name="n" unicode="n" horiz-adv-x="401" 
d="M55 0v475q81 35 162 35q78 0 107.5 -32t29.5 -105v-360q0 -10 -7 -11.5t-49 -1.5v358q0 57 -16.5 80t-66.5 23q-62 0 -105 -23v-425q0 -10 -7 -11.5t-48 -1.5z" />
    <glyph glyph-name="o" unicode="o" horiz-adv-x="383" 
d="M31 249q0 261 167 261q81 0 118 -56t37 -204q0 -260 -166 -260q-40 0 -66 9t-48 35.5t-32 79t-10 135.5zM90 245q0 -84 12.5 -130.5t32.5 -61.5t54 -15q105 0 105 214q0 123 -23.5 166t-74.5 43q-52 0 -79 -48.5t-27 -167.5z" />
    <glyph glyph-name="p" unicode="p" horiz-adv-x="400" 
d="M57 -174v644q65 40 144 40q82 0 123.5 -47t41.5 -164q0 -78 -11 -136t-28 -90t-40 -51.5t-43 -25.5t-42 -6q-62 0 -90 36v-219q-18 -4 -29 -4q-26 0 -26 23zM112 436v-350q27 -46 75 -46q119 3 119 248q0 100 -25.5 136.5t-82.5 36.5q-48 0 -86 -25z" />
    <glyph glyph-name="q" unicode="q" horiz-adv-x="408" 
d="M351 479v-653q0 -16 -6 -20t-28 -4q-4 0 -11.5 0.5t-10.5 0.5v240q-36 -53 -112 -53q-143 0 -143 231q0 148 54 218.5t148 70.5q65 0 109 -31zM295 103v340q-22 18 -65 18q-130 0 -130 -241q0 -180 102 -180q28 -1 54 15t39 48z" />
    <glyph glyph-name="r" unicode="r" horiz-adv-x="275" 
d="M55 0v466q65 44 134 44q72 0 72 -35q0 -17 -8 -33q-26 15 -56 15q-49 0 -86 -28v-416q0 -10 -7.5 -11.5t-48.5 -1.5z" />
    <glyph glyph-name="s" unicode="s" horiz-adv-x="368" 
d="M204 510q43 0 74 -9.5t42 -20.5t11 -20q0 -15 -13 -31q-49 32 -109 32q-47 0 -76 -17t-29 -48q0 -37 49 -70l108 -77q68 -56 68 -124q0 -65 -43.5 -100t-120.5 -35q-57 0 -91.5 12.5t-34.5 30.5t12 34q43 -26 109 -26q108 0 108 77q0 55 -56 97l-105 76q-39 27 -52.5 51
t-13.5 54q0 53 43.5 83.5t119.5 30.5z" />
    <glyph glyph-name="t" unicode="t" horiz-adv-x="298" 
d="M101 145v306h-74q0 33 2 41t11 8h61v158q0 16 9 19t46 3v-180h121q0 -33 -2 -41t-10 -8h-109v-307q0 -36 2 -55t12.5 -34.5t31.5 -15.5q30 0 65 16q4 -16 4 -29q0 -18 -23.5 -27t-57.5 -9q-30 0 -48.5 10.5t-27 34t-11 47t-2.5 63.5z" />
    <glyph glyph-name="u" unicode="u" horiz-adv-x="416" 
d="M357 500v-475q-67 -35 -152 -35t-116 40.5t-31 138.5v317q0 11 7 12.5t49 1.5v-338q0 -71 19.5 -97t76.5 -26q54 0 92 23v424q0 10 7.5 12t47.5 2z" />
    <glyph glyph-name="v" unicode="v" horiz-adv-x="356" 
d="M142 42l-116 440q-4 13 4 15.5t52 2.5l43 -174q14 -53 28 -119t21 -105l8 -40h1q24 145 53 265l39 159q2 10 9.5 12t47.5 2l-128 -506q-16 -2 -37 -2q-12 0 -25 50z" />
    <glyph glyph-name="w" unicode="w" horiz-adv-x="553" 
d="M24 486q-2 10 6 12t52 2l40 -182l47 -249h3q6 36 43 217l35 183q1 14 19 14h36l43 -199q11 -46 22.5 -99.5t17.5 -84.5l5 -31h4q8 80 42 249l34 168q2 10 9.5 12t46.5 2q-111 -506 -114 -506q-16 -2 -34 -2q-7 0 -15.5 15t-14.5 40l-16 69q-36 147 -58 279
q-28 -171 -54 -280l-27 -121q-29 -2 -43 -2t-24 49z" />
    <glyph glyph-name="x" unicode="x" horiz-adv-x="437" 
d="M400 500l-145 -234l156 -252q7 -10 -2 -12q-7 -2 -58 -2l-52 80q-35 56 -84 144q-21 -39 -83 -145l-45 -68q-4 -8 -14 -9.5t-51 -1.5l162 262l-139 228q-3 7 5 9q9 1 53 1l51 -80q47 -79 68 -119l70 121l45 68q4 8 11.5 9t51.5 1z" />
    <glyph glyph-name="y" unicode="y" horiz-adv-x="370" 
d="M163 -16l-130 499q-3 13 4 15t49 2l75 -294q5 -21 29 -155q9 69 27 156l67 276q2 13 9.5 15t49.5 2l-132 -531q-22 -89 -54 -125.5t-83 -36.5q-73 0 -73 30q0 18 10 32q28 -14 61 -14q63 0 91 129z" />
    <glyph glyph-name="z" unicode="z" horiz-adv-x="364" 
d="M52 500h276q6 -6 6 -18q0 -15 -7 -29l-233 -401h116q86 0 121 8q1 -6 1 -26q0 -34 -21 -34h-272q-10 9 -10 28q0 12 6 22l235 402h-121q-73 0 -113 -5q-2 13 -2 27q0 26 18 26z" />
    <glyph glyph-name="braceleft" unicode="{" horiz-adv-x="285" 
d="M257 744q11 -16 11 -34t-14 -20q-47 -2 -71.5 -21.5t-24.5 -65.5q0 -21 6 -85.5t6 -107.5q0 -85 -59 -109q30 -11 44.5 -31.5t14.5 -62.5q0 -44 -6 -110t-6 -92q0 -63 23 -81.5t80 -23.5q3 -14 3 -21q0 -29 -21 -29q-75 0 -108 31t-33 103q0 34 7 100t7 107
q0 39 -15 56.5t-45 23.5q-4 12 -4 25q0 22 15 30q18 11 26 18t15.5 26.5t7.5 51.5q0 40 -7 107t-7 98q0 117 155 117z" />
    <glyph glyph-name="bar" unicode="|" horiz-adv-x="354" 
d="M204 815v-1000q0 -11 -8 -13t-47 -2v998q0 12 8 14.5t47 2.5z" />
    <glyph glyph-name="braceright" unicode="}" horiz-adv-x="285" 
d="M28 -150q-10 13 -10 33q0 18 13 20q48 2 72.5 21.5t24.5 65.5q0 22 -6 86.5t-6 107.5q0 48 15 72t44 37q-29 10 -44 31t-15 63q0 44 6 109.5t6 92.5q0 62 -23 80.5t-81 24.5q-2 16 -2 21q0 29 20 29q75 0 108 -31t33 -103q0 -34 -7 -100.5t-7 -107.5q0 -39 15 -56.5
t45 -23.5q5 -11 5 -24q0 -21 -15 -31q-19 -11 -27 -18t-15.5 -26.5t-7.5 -51.5q0 -39 7 -106.5t7 -98.5q0 -116 -155 -116z" />
    <glyph glyph-name="asciitilde" unicode="~" horiz-adv-x="400" 
d="M12 261q15 23 47 42.5t74 19.5q34 0 72 -24.5t68 -24.5q45 0 78 40q12 10 23.5 1.5t14.5 -27.5q-43 -65 -121 -65q-39 0 -77.5 24.5t-62.5 24.5q-19 0 -35.5 -7t-33 -20t-18.5 -14q-9 -4 -18 5t-11 25z" />
    <glyph glyph-name="uni00A0" unicode="&#xa0;" horiz-adv-x="172" 
 />
    <glyph glyph-name="exclamdown" unicode="&#xa1;" horiz-adv-x="189" 
d="M140 463q0 -19 -11.5 -32t-30.5 -13q-44 0 -44 45q0 20 12 32.5t32 12.5q42 0 42 -45zM123 317l8 -499q0 -10 -14 -13t-57 -3l9 489q1 16 12 21t42 5z" />
    <glyph glyph-name="cent" unicode="&#xa2;" 
d="M283 638v-130q27 -2 49.5 -12t22.5 -19q0 -26 -7 -41q-35 22 -72 22q-26 0 -46 -8t-40.5 -30t-31.5 -71.5t-11 -123.5q0 -63 7 -101t23.5 -55.5t34 -22.5t49.5 -5q46 0 87 31q7 -14 7 -36q0 -14 -29 -29.5t-65 -16.5v-106q0 -14 -10.5 -19t-38.5 -5v132q-41 4 -65 21
t-40 69t-16 143q0 255 142 281v106q0 15 11.5 20.5t38.5 5.5z" />
    <glyph glyph-name="sterling" unicode="&#xa3;" horiz-adv-x="383" 
d="M276 278h-133q0 -122 7 -223l183 -4q5 -17 5 -26q0 -25 -55 -25h-186q-9 153 -9 278h-73v24t1.5 14.5t4 9.5t7.5 2h60q0 148 41 207.5t117 59.5q41 0 70.5 -13.5t29.5 -33.5q0 -16 -10 -35q-36 27 -82 27q-35 0 -57.5 -15t-38 -62.5t-15.5 -130.5v-4h147q0 -31 -2 -40.5
t-12 -9.5z" />
    <glyph glyph-name="yen" unicode="&#xa5;" 
d="M187 0v180h-136q0 27 4.5 36.5t18.5 9.5h113v58l-21 57h-115q0 27 4.5 36.5t18.5 9.5h75l-111 304q-2 7 6 8t56 1l48 -143q21 -58 43.5 -129.5t23.5 -82.5q2 24 67 213l46 132q2 7 10 8.5t50 1.5l-111 -313h98q0 -27 -4.5 -36.5t-18.5 -9.5h-92l-18 -53v-62h134
q0 -27 -4.5 -36.5t-18.5 -9.5h-111v-167q0 -10 -7 -11.5t-48 -1.5z" />
    <glyph glyph-name="brokenbar" unicode="&#xa6;" horiz-adv-x="226" 
d="M140 739v-390q0 -12 -5.5 -16t-22.5 -4q-15 0 -27 4v387q0 23 29 23q14 0 26 -4zM140 219v-397q0 -12 -5.5 -15.5t-22.5 -3.5q-18 0 -27 3v395q0 12 6.5 17t22.5 5q14 0 26 -4z" />
    <glyph glyph-name="section" unicode="&#xa7;" horiz-adv-x="367" 
d="M204 704q43 0 73 -14t36 -29q2 -4 2 -11q0 -19 -12 -34q-39 30 -96 30q-41 0 -65 -16t-24 -43t34 -64q11 -12 59 -54t66 -63q43 -47 43 -100q0 -27 -15.5 -55t-46.5 -46l10 -11q23 -26 32.5 -45t9.5 -45q0 -49 -40 -78.5t-106 -29.5q-44 0 -74 13.5t-36 29.5q-2 3 -2 11
q0 19 12 34q37 -30 96 -30q42 0 65.5 16t23.5 43q0 29 -34 64q-10 11 -58 53.5t-67 63.5q-43 49 -43 99q0 66 62 102l-10 11q-23 26 -32.5 45t-9.5 45q0 49 40 78.5t107 29.5zM133 314q11 -14 85 -74q22 9 36.5 30.5t14.5 38.5q0 36 -35 77q-13 15 -85 73q-23 -8 -36.5 -29
t-13.5 -40q0 -36 34 -76z" />
    <glyph glyph-name="dieresis" unicode="&#xa8;" horiz-adv-x="220" 
d="M0 649q0 17 10.5 29t28.5 12q19 0 29.5 -11.5t10.5 -29.5t-11 -29.5t-29 -11.5q-39 0 -39 41zM141 649q0 17 10.5 29t28.5 12q19 0 29.5 -11.5t10.5 -29.5t-11 -29.5t-29 -11.5q-39 0 -39 41z" />
    <glyph glyph-name="copyright" unicode="&#xa9;" horiz-adv-x="464" 
d="M291 657q0 -14 -7 -26q-18 10 -33 10q-28 0 -45 -22.5t-17 -91.5q0 -54 12 -69.5t40 -15.5q19 0 43 13q7 -14 7 -24q0 -7 -17.5 -14.5t-36.5 -7.5q-46 0 -65.5 22t-19.5 97q0 88 26.5 117t67.5 29q14 0 29.5 -6t15.5 -11zM38 540q0 220 200 220q97 0 143 -49.5t46 -169.5
q0 -107 -51 -164t-144 -57q-99 0 -146.5 48t-47.5 172zM82 537q0 -96 36 -135t110 -39q71 0 113 45t42 135q0 95 -36 135.5t-108 40.5q-157 0 -157 -182z" />
    <glyph glyph-name="ordfeminine" unicode="&#xaa;" horiz-adv-x="335" 
d="M60 678q36 32 121 32q104 0 104 -96v-297q-56 -28 -123 -28q-54 0 -83.5 23.5t-29.5 96.5q0 69 31 95t87 26q39 0 70 -11v78q0 63 -72 63q-53 0 -101 -24q-8 7 -9.5 21t5.5 21zM237 346v131q-25 10 -56 10q-44 0 -65 -14.5t-21 -66.5q0 -44 20 -59.5t57 -15.5q42 0 65 15
z" />
    <glyph glyph-name="guillemotleft" unicode="&#xab;" horiz-adv-x="417" 
d="M28 255q0 11 37.5 72.5l74.5 116.5l37 56q9 0 17.5 -7t11.5 -14l4 -7q0 -12 -32 -66t-64 -102l-33 -49q133 -198 133 -221q-13 -34 -32 -34q-154 227 -154 255zM191 250q0 11 36.5 68.5t73.5 109.5l37 51q9 0 17.5 -6.5t12.5 -13.5l3 -7q0 -12 -31.5 -62.5t-63.5 -95.5
l-32 -44q130 -173 130 -195q-12 -33 -31 -33q-152 202 -152 228z" />
    <glyph glyph-name="logicalnot" unicode="&#xac;" horiz-adv-x="400" 
d="M357 111q-11 -4 -27 -4q-26 0 -26 19v118h-266q-5 12 -5 26q0 11 5.5 19t14.5 8h304v-186z" />
    <glyph glyph-name="registered" unicode="&#xae;" horiz-adv-x="464" 
d="M38 540q0 220 200 220q97 0 143 -49.5t46 -169.5q0 -107 -51 -164t-144 -57q-99 0 -146.5 48t-47.5 172zM82 537q0 -96 36 -135t110 -39q71 0 113 45t42 135q0 95 -36 135.5t-108 40.5q-157 0 -157 -182zM172 412v259q0 5 6 5h49q83 0 83 -72q0 -55 -41 -74
q39 -39 47 -110q0 -8 -11 -9q-1 0 -10 0.5t-12 0.5q-11 81 -47 110h-33v-102q0 -6 -4.5 -7t-20.5 -1h-6zM277 604q0 44 -50 44h-24v-97h23q51 0 51 53z" />
    <glyph glyph-name="macron" unicode="&#xaf;" horiz-adv-x="256" 
d="M234 615h-231q-3 10 -3 26q2 27 23 27h228q5 -11 5 -25q-2 -28 -22 -28z" />
    <glyph glyph-name="degree" unicode="&#xb0;" horiz-adv-x="371" 
d="M97 652q0 91 94 91q45 0 65.5 -20t20.5 -70q0 -45 -24 -68t-69 -23q-44 0 -65.5 19t-21.5 71zM138 650q0 -49 47 -49q52 0 52 52q0 51 -46 51q-53 0 -53 -54z" />
    <glyph glyph-name="plusminus" unicode="&#xb1;" horiz-adv-x="433" 
d="M379 280h-136v-137q0 -9 -9.5 -11t-40.5 -2v150h-150v24t1.5 14.5t4 9.5t7.5 2h137v136q0 10 9.5 12t40.5 2v-150h150q0 -32 -2 -41t-12 -9zM378 13h-336v24t1.5 14.5t4 9.5t7.5 2h337q0 -31 -2 -40.5t-12 -9.5z" />
    <glyph glyph-name="twosuperior" unicode="&#xb2;" horiz-adv-x="401" 
d="M76 610q-12 17 -12 34q0 21 47 43.5t100 22.5q68 0 94.5 -28.5t26.5 -79.5q0 -36 -22 -73.5t-48 -63l-68 -64t-62 -60.5h214q4 -18 4 -24q0 -28 -19 -28h-275q-4 8 -4 20q0 22 9 32q28 31 88.5 83.5t89.5 89t29 74.5q0 30 -16.5 48t-60.5 18q-56 0 -115 -44z" />
    <glyph glyph-name="threesuperior" unicode="&#xb3;" horiz-adv-x="414" 
d="M141 510q0 20 18 20q26 0 66 -4q52 34 52 79q0 21 -18.5 38t-61.5 17q-68 0 -117 -39q-11 11 -11.5 26.5t7.5 20.5q44 42 139 42q63 0 92 -25.5t29 -64.5q0 -61 -56 -105q34 -12 53.5 -37.5t19.5 -59.5q0 -68 -47 -103.5t-126 -35.5t-111 28q-8 7 -8 21q0 18 15 31
q37 -29 105 -29q53 0 84.5 22t31.5 61q0 27 -19 45.5t-49 22.5q-23 4 -82 4q-6 8 -6 25z" />
    <glyph glyph-name="acute" unicode="&#xb4;" horiz-adv-x="162" 
d="M22 578q-5 0 -10.5 8t-8.5 16l-3 8q25 26 58 55t54.5 46t23.5 17q9 0 16.5 -15.5t9.5 -28.5q-6 -8 -54 -44.5t-86 -61.5z" />
    <glyph glyph-name="mu" unicode="&#xb5;" horiz-adv-x="419" 
d="M359 501v-478q-76 -33 -152 -33q-67 0 -95 36v-199q0 -22 -30 -22q-12 0 -24 4v672q0 24 27 24q16 0 27 -4v-371q0 -88 95 -88q53 0 98 20v418q0 13 5.5 19t21.5 6t27 -4z" />
    <glyph glyph-name="mu" unicode="&#x3bc;" horiz-adv-x="419" 
d="M359 501v-478q-76 -33 -152 -33q-67 0 -95 36v-199q0 -22 -30 -22q-12 0 -24 4v672q0 24 27 24q16 0 27 -4v-371q0 -88 95 -88q53 0 98 20v418q0 13 5.5 19t21.5 6t27 -4z" />
    <glyph glyph-name="paragraph" unicode="&#xb6;" horiz-adv-x="546" 
d="M357 683v-666q0 -20 -28 -20q-16 0 -26 4v206q-33 -17 -91 -17q-74 0 -121.5 53t-47.5 179q0 142 52 214.5t146 72.5q67 0 116 -26zM302 254v393q-20 14 -68 14q-65 0 -100 -60.5t-35 -173.5q0 -189 126 -191q44 -2 77 18zM487 685v-668q0 -11 -5.5 -15t-22.5 -4
q-18 0 -27 3v666q0 23 29 23q11 0 26 -5z" />
    <glyph glyph-name="periodcentered" unicode="&#xb7;" horiz-adv-x="208" 
d="M59 269q0 19 11.5 32t30.5 13q44 0 44 -45q0 -19 -12 -32t-32 -13q-42 0 -42 45z" />
    <glyph glyph-name="cedilla" unicode="&#xb8;" horiz-adv-x="125" 
d="M35 3h36l-13 -63q1 2 18 2q20 0 34.5 -14.5t14.5 -43.5q0 -38 -21 -57.5t-51 -19.5q-13 0 -26 2.5t-20 4.5l-7 3q4 26 10 33q5 2 9.5 0t15 -5.5t19.5 -3.5q34 0 34 36q0 35 -33 35l-39 -6z" />
    <glyph glyph-name="onesuperior" unicode="&#xb9;" horiz-adv-x="408" 
d="M193 649l-122 -25q-7 10 -7 26q0 20 19 26q114 34 147 34q12 0 19 -3v-366h95q3 -14 3 -25q0 -27 -18 -27h-265q-3 14 -3 23q0 29 19 29h113v308z" />
    <glyph glyph-name="ordmasculine" unicode="&#xba;" horiz-adv-x="348" 
d="M42 498q0 108 36.5 160t101.5 52q66 0 96 -45.5t30 -165.5q0 -209 -136 -209q-65 0 -96.5 44t-31.5 164zM90 494q0 -90 19.5 -123.5t60.5 -33.5q89 0 89 163q0 91 -19 125.5t-59 34.5q-91 0 -91 -166z" />
    <glyph glyph-name="guillemotright" unicode="&#xbb;" horiz-adv-x="415" 
d="M387 255q0 -12 -38.5 -76t-76.5 -121l-39 -58q-4 1 -9 3t-14 10.5t-9 19.5t33.5 66.5l66.5 105.5l33 50q-129 190 -129 217q0 9 8.5 16t16.5 10l8 2q149 -220 149 -245zM226 250q0 -12 -38 -69.5t-76 -108.5l-39 -51q-3 1 -8 3t-13.5 10.5t-8.5 19.5t32.5 60t64.5 92
l33 44q1 0 -30.5 44.5l-64 95t-32.5 62.5q0 9 7.5 16t15.5 10l8 2q149 -204 149 -230z" />
    <glyph glyph-name="onequarter" unicode="&#xbc;" horiz-adv-x="877" 
d="M193 649l-122 -25q-7 10 -7 26q0 20 19 26q114 34 147 34q12 0 19 -3v-366h95q3 -14 3 -25q0 -27 -18 -27h-265q-3 14 -3 23q0 29 19 29h113v308zM741 418v-291h70q5 -12 5 -27q0 -26 -17 -26h-58v-60q0 -19 -30 -19q-10 0 -22 3v76h-187q-8 9 -8 26q0 11 7 31
q20 62 72 143.5t100 127.5q18 19 45 19q5 0 23 -3zM548 124h142l2 228q-38 -34 -82 -101.5t-62 -126.5zM691 690l-400 -689q-4 -9 -16 -9q-24 0 -38 22l399 684q4 13 18 13q20 0 37 -21z" />
    <glyph glyph-name="onehalf" unicode="&#xbd;" horiz-adv-x="911" 
d="M193 649l-122 -25q-7 10 -7 26q0 20 19 26q114 34 147 34q12 0 19 -3v-366h95q3 -14 3 -25q0 -27 -18 -27h-265q-3 14 -3 23q0 29 19 29h113v308zM691 690l-400 -689q-4 -9 -16 -9q-24 0 -38 22l399 684q4 13 18 13q20 0 37 -21zM577 321q-12 17 -12 34q0 21 47 43.5
t100 22.5q68 0 94.5 -28.5t26.5 -79.5q0 -36 -22 -73.5t-48 -63l-68 -64t-62 -60.5h214q4 -18 4 -24q0 -28 -19 -28h-275q-4 8 -4 20q0 22 9 32q28 31 88.5 83.5t89.5 89t29 74.5q0 30 -16.5 48t-60.5 18q-56 0 -115 -44z" />
    <glyph glyph-name="threequarters" unicode="&#xbe;" horiz-adv-x="874" 
d="M141 510q0 20 18 20q26 0 66 -4q52 34 52 79q0 21 -18.5 38t-61.5 17q-68 0 -117 -39q-11 11 -11.5 26.5t7.5 20.5q44 42 139 42q63 0 92 -25.5t29 -64.5q0 -61 -56 -105q34 -12 53.5 -37.5t19.5 -59.5q0 -68 -47 -103.5t-126 -35.5t-111 28q-8 7 -8 21q0 18 15 31
q37 -29 105 -29q53 0 84.5 22t31.5 61q0 27 -19 45.5t-49 22.5q-23 4 -82 4q-6 8 -6 25zM738 418v-291h70q5 -12 5 -27q0 -26 -17 -26h-58v-60q0 -19 -30 -19q-10 0 -22 3v76h-187q-8 9 -8 26q0 11 7 31q20 62 72 143.5t100 127.5q18 19 45 19q5 0 23 -3zM545 124h142l2 228
q-38 -34 -82 -101.5t-62 -126.5zM697 690l-400 -689q-4 -9 -16 -9q-24 0 -38 22l399 684q4 13 18 13q20 0 37 -21z" />
    <glyph glyph-name="questiondown" unicode="&#xbf;" horiz-adv-x="302" 
d="M210 462q0 -19 -11.5 -32t-30.5 -13q-44 0 -44 45q0 19 12 32t32 13q42 0 42 -45zM154 -195q-61 0 -100.5 33.5t-39.5 108.5q0 40 14 78.5t31 62l40 53.5t32 46q18 31 18 68q0 12 -2 27t-3.5 20t0.5 10q9 13 50 6q11 -25 11 -61q0 -46 -23 -87q-13 -23 -44 -63.5
t-48.5 -75t-17.5 -74.5q0 -97 97 -97q57 0 96 30q7 -19 7 -43q0 -15 -37.5 -28.5t-80.5 -13.5z" />
    <glyph glyph-name="Agrave" unicode="&#xc0;" horiz-adv-x="436" 
d="M372 0l-50 193h-208l-46 -182q-2 -12 -27 -12q-20 0 -34 2l189 694q2 9 19 9q15 0 24 -3l189 -688q2 -8 -3 -11t-20 -3q-19 0 -33 1zM175 429l-48 -185h181l-48 185q-38 148 -42 196q-7 -62 -43 -196zM243 783q-3 0 -68.5 49.5t-72.5 56.5q2 13 9.5 28t16.5 15
q3 0 65.5 -53t70.5 -64q-11 -32 -21 -32z" />
    <glyph glyph-name="Aacute" unicode="&#xc1;" horiz-adv-x="436" 
d="M372 0l-50 193h-208l-46 -182q-2 -12 -27 -12q-20 0 -34 2l189 694q2 9 19 9q15 0 24 -3l189 -688q2 -8 -3 -11t-20 -3q-19 0 -33 1zM175 429l-48 -185h181l-48 185q-38 148 -42 196q-7 -62 -43 -196zM199 778q-5 0 -10.5 8t-8.5 16l-3 8q25 26 58 55t54.5 46t23.5 17
q9 0 16.5 -15.5t9.5 -28.5q-6 -8 -54 -44.5t-86 -61.5z" />
    <glyph glyph-name="Acircumflex" unicode="&#xc2;" horiz-adv-x="436" 
d="M372 0l-50 193h-208l-46 -182q-2 -12 -27 -12q-20 0 -34 2l189 694q2 9 19 9q15 0 24 -3l189 -688q2 -8 -3 -11t-20 -3q-19 0 -33 1zM175 429l-48 -185h181l-48 185q-38 148 -42 196q-7 -62 -43 -196zM95 799l111 114q6 2 13 2q12 0 20 -9q97 -98 97 -107q0 -6 -13 -13
t-28 -7q-70 73 -77 86q-73 -85 -85 -85q-24 0 -38 19z" />
    <glyph glyph-name="Atilde" unicode="&#xc3;" horiz-adv-x="436" 
d="M372 0l-50 193h-208l-46 -182q-2 -12 -27 -12q-20 0 -34 2l189 694q2 9 19 9q15 0 24 -3l189 -688q2 -8 -3 -11t-20 -3q-19 0 -33 1zM175 429l-48 -185h181l-48 185q-38 148 -42 196q-7 -62 -43 -196zM74 824q40 68 102 68q23 0 46.5 -25.5t44.5 -25.5q23 0 37.5 11.5
t21.5 22.5t11 11q6 0 11.5 -8t7.5 -16l3 -8q-6 -13 -16.5 -26t-33.5 -26.5t-49 -13.5q-32 0 -55.5 26.5t-38.5 26.5q-17 0 -30 -11.5t-21 -22.5t-12 -11q-7 0 -14 7t-11 14z" />
    <glyph glyph-name="Adieresis" unicode="&#xc4;" horiz-adv-x="436" 
d="M372 0l-50 193h-208l-46 -182q-2 -12 -27 -12q-20 0 -34 2l189 694q2 9 19 9q15 0 24 -3l189 -688q2 -8 -3 -11t-20 -3q-19 0 -33 1zM175 429l-48 -185h181l-48 185q-38 148 -42 196q-7 -62 -43 -196zM109 849q0 17 10.5 29t28.5 12q19 0 29.5 -11.5t10.5 -29.5
t-11 -29.5t-29 -11.5q-39 0 -39 41zM250 849q0 17 10.5 29t28.5 12q19 0 29.5 -11.5t10.5 -29.5t-11 -29.5t-29 -11.5q-39 0 -39 41z" />
    <glyph glyph-name="Aring" unicode="&#xc5;" horiz-adv-x="436" 
d="M372 0l-50 193h-208l-46 -182q-2 -12 -27 -12q-20 0 -34 2l189 694q2 9 19 9q15 0 24 -3l189 -688q2 -8 -3 -11t-20 -3q-19 0 -33 1zM175 429l-48 -185h181l-48 185q-38 148 -42 196q-7 -62 -43 -196zM127 864q0 91 94 91q45 0 65.5 -20t20.5 -70q0 -91 -93 -91
q-43 0 -65 20.5t-22 69.5zM170 862q0 -48 45 -48q50 0 50 51q0 49 -44 49q-26 0 -38.5 -12t-12.5 -40z" />
    <glyph glyph-name="AE" unicode="&#xc6;" horiz-adv-x="642" 
d="M417 51h197q0 -36 -1.5 -43.5t-10.5 -7.5h-240v193h-196l-87 -182q-5 -12 -27 -12q-20 0 -34 2l328 688q3 11 18 11h251q0 -35 -1.5 -43t-9.5 -8h-187v-241h175q0 -34 -1.5 -42.5t-9.5 -8.5h-164v-306zM277 425l-87 -181h172v391q-36 -99 -85 -210z" />
    <glyph glyph-name="Ccedilla" unicode="&#xc7;" horiz-adv-x="353" 
d="M233 711q45 0 69 -16t24 -34t-10 -34q-35 31 -75 31q-24 0 -42.5 -6.5t-38.5 -27.5t-33.5 -57t-22 -100t-8.5 -151q0 -82 9.5 -137.5t27.5 -82.5t37 -37t45 -10q32 0 61 13.5t43 30.5q10 -18 10 -35q0 -23 -32 -44t-78 -24l-10 -50q1 2 18 2q20 0 34.5 -14.5t14.5 -43.5
q0 -38 -21 -57.5t-51 -19.5q-13 0 -26 2.5t-20 4.5l-7 3q4 26 10 33q5 2 9.5 0t15 -5.5t19.5 -3.5q34 0 34 36q0 35 -33 35l-39 -6l16 84q-25 2 -44 9.5t-38.5 29t-32.5 56t-21 93.5t-8 139q0 101 12 175.5t30 115.5t45.5 65t51.5 31t55 7z" />
    <glyph glyph-name="Egrave" unicode="&#xc8;" horiz-adv-x="337" 
d="M111 51h197q0 -36 -1.5 -43.5t-10.5 -7.5h-239v686q0 14 13 14h239q0 -47 -5 -50q-2 -1 -5 -1h-188v-241h176q0 -34 -1.5 -42.5t-10.5 -8.5h-164v-306zM220 783q-3 0 -68.5 49.5t-72.5 56.5q2 13 9.5 28t16.5 15q3 0 65.5 -53t70.5 -64q-11 -32 -21 -32z" />
    <glyph glyph-name="Eacute" unicode="&#xc9;" horiz-adv-x="337" 
d="M111 51h197q0 -36 -1.5 -43.5t-10.5 -7.5h-239v686q0 14 13 14h239q0 -47 -5 -50q-2 -1 -5 -1h-188v-241h176q0 -34 -1.5 -42.5t-10.5 -8.5h-164v-306zM175 778q-5 0 -10.5 8t-8.5 16l-3 8q25 26 58 55t54.5 46t23.5 17q9 0 16.5 -15.5t9.5 -28.5q-6 -8 -54 -44.5
t-86 -61.5z" />
    <glyph glyph-name="Ecircumflex" unicode="&#xca;" horiz-adv-x="337" 
d="M111 51h197q0 -36 -1.5 -43.5t-10.5 -7.5h-239v686q0 14 13 14h239q0 -47 -5 -50q-2 -1 -5 -1h-188v-241h176q0 -34 -1.5 -42.5t-10.5 -8.5h-164v-306zM71 799l111 114q6 2 13 2q12 0 20 -9q97 -98 97 -107q0 -6 -13 -13t-28 -7q-70 73 -77 86q-73 -85 -85 -85
q-24 0 -38 19z" />
    <glyph glyph-name="Edieresis" unicode="&#xcb;" horiz-adv-x="337" 
d="M111 51h197q0 -36 -1.5 -43.5t-10.5 -7.5h-239v686q0 14 13 14h239q0 -47 -5 -50q-2 -1 -5 -1h-188v-241h176q0 -34 -1.5 -42.5t-10.5 -8.5h-164v-306zM85 849q0 17 10.5 29t28.5 12q19 0 29.5 -11.5t10.5 -29.5t-11 -29.5t-29 -11.5q-39 0 -39 41zM226 849q0 17 10.5 29
t28.5 12q19 0 29.5 -11.5t10.5 -29.5t-11 -29.5t-29 -11.5q-39 0 -39 41z" />
    <glyph glyph-name="Igrave" unicode="&#xcc;" horiz-adv-x="165" 
d="M54 0v672q0 21 7.5 24.5t48.5 3.5v-687q0 -10 -7 -11.5t-49 -1.5zM108 783q-3 0 -68.5 49.5t-72.5 56.5q2 13 9.5 28t16.5 15q3 0 65.5 -53t70.5 -64q-11 -32 -21 -32z" />
    <glyph glyph-name="Iacute" unicode="&#xcd;" horiz-adv-x="165" 
d="M54 0v672q0 21 7.5 24.5t48.5 3.5v-687q0 -10 -7 -11.5t-49 -1.5zM63 778q-5 0 -10.5 8t-8.5 16l-3 8q25 26 58 55t54.5 46t23.5 17q9 0 16.5 -15.5t9.5 -28.5q-6 -8 -54 -44.5t-86 -61.5z" />
    <glyph glyph-name="Icircumflex" unicode="&#xce;" horiz-adv-x="165" 
d="M54 0v672q0 21 7.5 24.5t48.5 3.5v-687q0 -10 -7 -11.5t-49 -1.5zM-40 799l111 114q6 2 13 2q12 0 20 -9q97 -98 97 -107q0 -6 -13 -13t-28 -7q-70 73 -77 86q-73 -85 -85 -85q-24 0 -38 19z" />
    <glyph glyph-name="Idieresis" unicode="&#xcf;" horiz-adv-x="165" 
d="M54 0v672q0 21 7.5 24.5t48.5 3.5v-687q0 -10 -7 -11.5t-49 -1.5zM-26 849q0 17 10.5 29t28.5 12q19 0 29.5 -11.5t10.5 -29.5t-11 -29.5t-29 -11.5q-39 0 -39 41zM115 849q0 17 10.5 29t28.5 12q19 0 29.5 -11.5t10.5 -29.5t-11 -29.5t-29 -11.5q-39 0 -39 41z" />
    <glyph glyph-name="Eth" unicode="&#xd0;" horiz-adv-x="414" 
d="M81 700h100q99 0 146.5 -71t47.5 -238q0 -116 -14.5 -195t-42.5 -120.5t-61.5 -58.5t-79.5 -17h-121v344h-44v24t1.5 14t4 9t7.5 2h31v290q0 17 25 17zM315 391q0 140 -32 199t-103 59h-69v-256h104q0 -31 -2 -40t-12 -9h-90v-291h67q23 0 41 6.5t37 27.5t31 57t20 98.5
t8 148.5z" />
    <glyph glyph-name="Ntilde" unicode="&#xd1;" horiz-adv-x="456" 
d="M350 0l-123 281q-28 66 -122 313q4 -148 4 -336v-245q0 -10 -6.5 -11.5t-47.5 -1.5v686q0 14 13 14h39l120 -276q19 -53 124 -316q-5 75 -5 341v237q0 10 7 12t48 2v-687q0 -13 -13 -13h-38zM93 824q40 68 102 68q23 0 46.5 -25.5t44.5 -25.5q23 0 37.5 11.5t21.5 22.5
t11 11q6 0 11.5 -8t8.5 -16l2 -8q-6 -13 -16.5 -26t-33.5 -26.5t-49 -13.5q-32 0 -55.5 26.5t-38.5 26.5q-17 0 -30 -11.5t-21 -22.5t-12 -11q-7 0 -14 7t-11 14z" />
    <glyph glyph-name="Ograve" unicode="&#xd2;" horiz-adv-x="446" 
d="M38 355q0 191 46.5 273t145.5 82q98 0 138 -78t40 -276q0 -200 -44.5 -283t-144.5 -83q-99 0 -140 79t-41 286zM99 338q0 -159 27.5 -225t94.5 -66q69 0 98.5 70.5t29.5 239.5q0 165 -27 231t-94 66t-98 -72.5t-31 -243.5zM258 783q-3 0 -68.5 49.5t-72.5 56.5
q2 13 9.5 28t16.5 15q3 0 65.5 -53t70.5 -64q-11 -32 -21 -32z" />
    <glyph glyph-name="Oacute" unicode="&#xd3;" horiz-adv-x="446" 
d="M38 355q0 191 46.5 273t145.5 82q98 0 138 -78t40 -276q0 -200 -44.5 -283t-144.5 -83q-99 0 -140 79t-41 286zM99 338q0 -159 27.5 -225t94.5 -66q69 0 98.5 70.5t29.5 239.5q0 165 -27 231t-94 66t-98 -72.5t-31 -243.5zM213 778q-5 0 -10.5 8t-8.5 16l-3 8
q25 26 58 55t54.5 46t23.5 17q9 0 16.5 -15.5t9.5 -28.5q-6 -8 -54 -44.5t-86 -61.5z" />
    <glyph glyph-name="Ocircumflex" unicode="&#xd4;" horiz-adv-x="446" 
d="M38 355q0 191 46.5 273t145.5 82q98 0 138 -78t40 -276q0 -200 -44.5 -283t-144.5 -83q-99 0 -140 79t-41 286zM99 338q0 -159 27.5 -225t94.5 -66q69 0 98.5 70.5t29.5 239.5q0 165 -27 231t-94 66t-98 -72.5t-31 -243.5zM109 799l111 114q6 2 13 2q12 0 20 -9
q97 -98 97 -107q0 -6 -13 -13t-28 -7q-70 73 -77 86q-73 -85 -85 -85q-24 0 -38 19z" />
    <glyph glyph-name="Otilde" unicode="&#xd5;" horiz-adv-x="446" 
d="M38 355q0 191 46.5 273t145.5 82q98 0 138 -78t40 -276q0 -200 -44.5 -283t-144.5 -83q-99 0 -140 79t-41 286zM99 338q0 -159 27.5 -225t94.5 -66q69 0 98.5 70.5t29.5 239.5q0 165 -27 231t-94 66t-98 -72.5t-31 -243.5zM88 824q40 68 102 68q23 0 46.5 -25.5
t44.5 -25.5q23 0 37.5 11.5t21.5 22.5t11 11q6 0 11.5 -8t7.5 -16l3 -8q-6 -13 -16.5 -26t-33.5 -26.5t-49 -13.5q-32 0 -55.5 26.5t-38.5 26.5q-17 0 -30 -11.5t-21 -22.5t-12 -11q-7 0 -14 7t-11 14z" />
    <glyph glyph-name="Odieresis" unicode="&#xd6;" horiz-adv-x="446" 
d="M38 355q0 191 46.5 273t145.5 82q98 0 138 -78t40 -276q0 -200 -44.5 -283t-144.5 -83q-99 0 -140 79t-41 286zM99 338q0 -159 27.5 -225t94.5 -66q69 0 98.5 70.5t29.5 239.5q0 165 -27 231t-94 66t-98 -72.5t-31 -243.5zM123 849q0 17 10.5 29t28.5 12q19 0 29.5 -11.5
t10.5 -29.5t-11 -29.5t-29 -11.5q-39 0 -39 41zM264 849q0 17 10.5 29t28.5 12q19 0 29.5 -11.5t10.5 -29.5t-11 -29.5t-29 -11.5q-39 0 -39 41z" />
    <glyph glyph-name="multiply" unicode="&#xd7;" 
d="M298 150l-83 93l-82 -93q-4 -4 -7.5 -4.5t-9.5 4t-11 9.5l-17 17l93 105l-94 107q31 30 39 29q3 0 6 -3l83 -94l84 94q8 5 14.5 1t25.5 -22l5 -5l-95 -107l94 -105q-22 -23 -28 -27t-17 1z" />
    <glyph glyph-name="Oslash" unicode="&#xd8;" horiz-adv-x="464" 
d="M89 -16q-9 -1 -21.5 3.5t-14.5 14.5q0 1 5 14l13 33l12 30q-36 81 -36 276q0 191 45.5 273t144.5 82q76 0 116 -44l21 53q34 -2 37 -18q0 -8 -28 -84q34 -83 34 -261q0 -200 -44 -283t-144 -83q-78 0 -119 45zM358 357q0 149 -21 215l-186 -491q26 -35 76 -35
q46 0 73.5 26t42.5 95t15 190zM108 338q0 -145 21 -211l185 492q-27 35 -76 35q-68 0 -99 -72t-31 -244z" />
    <glyph glyph-name="Ugrave" unicode="&#xd9;" horiz-adv-x="458" 
d="M111 700v-487q0 -32 2 -54.5t9.5 -46t21 -38t36.5 -23.5t56 -9q70 0 112 21v624q0 10 7.5 11.5t48.5 1.5v-675q-21 -14 -68.5 -24.5t-99.5 -10.5q-48 0 -82 12.5t-53 31.5t-29.5 50.5t-13.5 60.5t-3 70v471q0 10 7 12t49 2zM261 783q-3 0 -68.5 49.5t-72.5 56.5
q2 13 9.5 28t16.5 15q3 0 65.5 -53t70.5 -64q-11 -32 -21 -32z" />
    <glyph glyph-name="Uacute" unicode="&#xda;" horiz-adv-x="458" 
d="M111 700v-487q0 -32 2 -54.5t9.5 -46t21 -38t36.5 -23.5t56 -9q70 0 112 21v624q0 10 7.5 11.5t48.5 1.5v-675q-21 -14 -68.5 -24.5t-99.5 -10.5q-48 0 -82 12.5t-53 31.5t-29.5 50.5t-13.5 60.5t-3 70v471q0 10 7 12t49 2zM216 778q-5 0 -10.5 8t-8.5 16l-3 8
q25 26 58 55t54.5 46t23.5 17q9 0 16.5 -15.5t9.5 -28.5q-6 -8 -54 -44.5t-86 -61.5z" />
    <glyph glyph-name="Ucircumflex" unicode="&#xdb;" horiz-adv-x="458" 
d="M111 700v-487q0 -32 2 -54.5t9.5 -46t21 -38t36.5 -23.5t56 -9q70 0 112 21v624q0 10 7.5 11.5t48.5 1.5v-675q-21 -14 -68.5 -24.5t-99.5 -10.5q-48 0 -82 12.5t-53 31.5t-29.5 50.5t-13.5 60.5t-3 70v471q0 10 7 12t49 2zM112 799l111 114q6 2 13 2q12 0 20 -9
q97 -98 97 -107q0 -6 -13 -13t-28 -7q-70 73 -77 86q-73 -85 -85 -85q-24 0 -38 19z" />
    <glyph glyph-name="Udieresis" unicode="&#xdc;" horiz-adv-x="458" 
d="M111 700v-487q0 -32 2 -54.5t9.5 -46t21 -38t36.5 -23.5t56 -9q70 0 112 21v624q0 10 7.5 11.5t48.5 1.5v-675q-21 -14 -68.5 -24.5t-99.5 -10.5q-48 0 -82 12.5t-53 31.5t-29.5 50.5t-13.5 60.5t-3 70v471q0 10 7 12t49 2zM126 849q0 17 10.5 29t28.5 12
q19 0 29.5 -11.5t10.5 -29.5t-11 -29.5t-29 -11.5q-39 0 -39 41zM267 849q0 17 10.5 29t28.5 12q19 0 29.5 -11.5t10.5 -29.5t-11 -29.5t-29 -11.5q-39 0 -39 41z" />
    <glyph glyph-name="Yacute" unicode="&#xdd;" horiz-adv-x="361" 
d="M155 0v284l-149 407q-2 7 6 8t56 1l48 -143q19 -52 42 -128t26 -94q8 53 68 223l44 132q2 7 10 8.5t50 1.5l-146 -414v-273q0 -10 -6.5 -11.5t-48.5 -1.5zM165 778q-5 0 -10.5 8t-8.5 16l-3 8q25 26 58 55t54.5 46t23.5 17q9 0 16.5 -15.5t9.5 -28.5q-6 -8 -54 -44.5
t-86 -61.5z" />
    <glyph glyph-name="Thorn" unicode="&#xde;" horiz-adv-x="370" 
d="M55 0v685q0 10 7 12.5t30 2.5h17v-129h63q175 0 175 -191q0 -109 -48 -161t-131 -52h-59v-154q0 -10 -7.5 -11.5t-46.5 -1.5zM287 385q0 136 -110 136q-19 0 -34.5 -0.5t-24 -0.5h-9.5v-300q3 0 32 -0.5t31 -0.5q115 0 115 166z" />
    <glyph glyph-name="germandbls" unicode="&#xdf;" horiz-adv-x="470" 
d="M58 54l-1 495q0 155 157 155q98 0 146 -44t48 -98q0 -31 -20 -55t-44 -36.5t-44 -32t-20 -42.5q0 -19 18 -39.5t44 -41t52 -44t44 -59t18 -76.5q0 -69 -40 -107t-110 -38q-36 0 -64 7.5t-41 17t-13 18.5q0 19 15 38q35 -31 93 -31q45 0 73 23.5t28 69.5q0 40 -27.5 76.5
t-60.5 60.5t-60.5 56.5t-27.5 65.5q0 31 20 55t44.5 37.5t44.5 33.5t20 43q0 35 -34 63t-98 28q-56 0 -81 -31.5t-25 -104.5l1 -489q0 -20 -6.5 -28.5t-25.5 -8.5q-9 0 -17 2.5t-12 4.5l-3 3q9 19 9 53z" />
    <glyph glyph-name="agrave" unicode="&#xe0;" horiz-adv-x="367" 
d="M36 464q0 14 8 20q16 10 61 18t96 8q62 0 91 -27.5t29 -93.5v-60q0 -173 -5 -303q-59 -36 -136 -36q-25 0 -43 2t-38.5 10.5t-33 24.5t-21 44t-8.5 68q0 51 12 85t35 50t46.5 22t55.5 6q53 0 82 -12v88q0 46 -20 62.5t-59 16.5q-88 0 -144 -25q-8 16 -8 32zM267 249
q-27 10 -65 10q-52 0 -80.5 -23t-28.5 -95q0 -34 7 -56t22 -31.5t29 -12.5t37 -3q50 0 74 22q5 70 5 189zM211 583q-3 0 -68.5 49.5t-72.5 56.5q2 13 9.5 28t16.5 15q3 0 65.5 -53t70.5 -64q-11 -32 -21 -32z" />
    <glyph glyph-name="aacute" unicode="&#xe1;" horiz-adv-x="367" 
d="M36 464q0 14 8 20q16 10 61 18t96 8q62 0 91 -27.5t29 -93.5v-60q0 -173 -5 -303q-59 -36 -136 -36q-25 0 -43 2t-38.5 10.5t-33 24.5t-21 44t-8.5 68q0 51 12 85t35 50t46.5 22t55.5 6q53 0 82 -12v88q0 46 -20 62.5t-59 16.5q-88 0 -144 -25q-8 16 -8 32zM267 249
q-27 10 -65 10q-52 0 -80.5 -23t-28.5 -95q0 -34 7 -56t22 -31.5t29 -12.5t37 -3q50 0 74 22q5 70 5 189zM167 578q-5 0 -10.5 8t-8.5 16l-3 8q25 26 58 55t54.5 46t23.5 17q9 0 16.5 -15.5t9.5 -28.5q-6 -8 -54 -44.5t-86 -61.5z" />
    <glyph glyph-name="acircumflex" unicode="&#xe2;" horiz-adv-x="367" 
d="M36 464q0 14 8 20q16 10 61 18t96 8q62 0 91 -27.5t29 -93.5v-60q0 -173 -5 -303q-59 -36 -136 -36q-25 0 -43 2t-38.5 10.5t-33 24.5t-21 44t-8.5 68q0 51 12 85t35 50t46.5 22t55.5 6q53 0 82 -12v88q0 46 -20 62.5t-59 16.5q-88 0 -144 -25q-8 16 -8 32zM267 249
q-27 10 -65 10q-52 0 -80.5 -23t-28.5 -95q0 -34 7 -56t22 -31.5t29 -12.5t37 -3q50 0 74 22q5 70 5 189zM63 599l111 114q6 2 13 2q12 0 20 -9q97 -98 97 -107q0 -6 -13 -13t-28 -7q-70 73 -77 86q-73 -85 -85 -85q-24 0 -38 19z" />
    <glyph glyph-name="atilde" unicode="&#xe3;" horiz-adv-x="367" 
d="M36 464q0 14 8 20q16 10 61 18t96 8q62 0 91 -27.5t29 -93.5v-60q0 -173 -5 -303q-59 -36 -136 -36q-25 0 -43 2t-38.5 10.5t-33 24.5t-21 44t-8.5 68q0 51 12 85t35 50t46.5 22t55.5 6q53 0 82 -12v88q0 46 -20 62.5t-59 16.5q-88 0 -144 -25q-8 16 -8 32zM267 249
q-27 10 -65 10q-52 0 -80.5 -23t-28.5 -95q0 -34 7 -56t22 -31.5t29 -12.5t37 -3q50 0 74 22q5 70 5 189zM42 624q40 68 102 68q23 0 46.5 -25.5t44.5 -25.5q23 0 37.5 11.5t21.5 22.5t11 11q6 0 11.5 -8t7.5 -16l3 -8q-6 -13 -16.5 -26t-33.5 -26.5t-49 -13.5
q-32 0 -55.5 26.5t-38.5 26.5q-17 0 -30 -11.5t-21 -22.5t-12 -11q-7 0 -14 7t-11 14z" />
    <glyph glyph-name="adieresis" unicode="&#xe4;" horiz-adv-x="367" 
d="M36 464q0 14 8 20q16 10 61 18t96 8q62 0 91 -27.5t29 -93.5v-60q0 -173 -5 -303q-59 -36 -136 -36q-25 0 -43 2t-38.5 10.5t-33 24.5t-21 44t-8.5 68q0 51 12 85t35 50t46.5 22t55.5 6q53 0 82 -12v88q0 46 -20 62.5t-59 16.5q-88 0 -144 -25q-8 16 -8 32zM267 249
q-27 10 -65 10q-52 0 -80.5 -23t-28.5 -95q0 -34 7 -56t22 -31.5t29 -12.5t37 -3q50 0 74 22q5 70 5 189zM77 649q0 17 10.5 29t28.5 12q19 0 29.5 -11.5t10.5 -29.5t-11 -29.5t-29 -11.5q-39 0 -39 41zM218 649q0 17 10.5 29t28.5 12q19 0 29.5 -11.5t10.5 -29.5t-11 -29.5
t-29 -11.5q-39 0 -39 41z" />
    <glyph glyph-name="aring" unicode="&#xe5;" horiz-adv-x="367" 
d="M36 464q0 14 8 20q16 10 61 18t96 8q62 0 91 -27.5t29 -93.5v-60q0 -173 -5 -303q-59 -36 -136 -36q-25 0 -43 2t-38.5 10.5t-33 24.5t-21 44t-8.5 68q0 51 12 85t35 50t46.5 22t55.5 6q53 0 82 -12v88q0 46 -20 62.5t-59 16.5q-88 0 -144 -25q-8 16 -8 32zM267 249
q-27 10 -65 10q-52 0 -80.5 -23t-28.5 -95q0 -34 7 -56t22 -31.5t29 -12.5t37 -3q50 0 74 22q5 70 5 189zM95 664q0 91 94 91q45 0 65.5 -20t20.5 -70q0 -91 -93 -91q-43 0 -65 20.5t-22 69.5zM138 662q0 -48 45 -48q50 0 50 51q0 49 -44 49q-26 0 -38.5 -12t-12.5 -40z" />
    <glyph glyph-name="ae" unicode="&#xe6;" horiz-adv-x="620" 
d="M40 464q0 14 9 19q42 27 152 27q49 0 75.5 -18.5t33.5 -60.5q23 47 57 63t82 16q126 0 126 -155q0 -76 -10 -123q-45 -7 -93 -7q-76 0 -146 15v-17q0 -59 7.5 -96t24 -54.5t34.5 -22.5t47 -5q75 0 124 34q7 -17 7 -50q0 -6 -18 -14.5t-51 -15.5t-67 -7q-88 0 -120 46v-17
q-51 -30 -134 -30q-32 0 -53.5 4t-44.5 17.5t-34.5 46t-11.5 83.5q0 96 40.5 131.5t107.5 35.5q54 0 83 -12v84q0 45 -22 62t-63 17q-84 0 -135 -29q-7 13 -7 33zM267 59v197q-27 10 -65 10q-51 0 -80 -25.5t-29 -99.5q0 -65 23.5 -84t70.5 -19q59 0 80 21zM444 460
q-45 0 -76.5 -35.5t-39.5 -138.5q77 -16 137 -16q31 0 52 4q4 32 4 70q-1 62 -17.5 89t-59.5 27z" />
    <glyph glyph-name="ccedilla" unicode="&#xe7;" horiz-adv-x="331" 
d="M304 470q0 -16 -7 -33q-33 23 -78 23q-19 0 -34 -4t-32.5 -17.5t-29 -36.5t-19.5 -65.5t-8 -100.5q0 -115 27 -155.5t82 -40.5q58 0 92 30q7 -17 7 -32q0 -16 -27.5 -30t-69.5 -17l-10 -51q1 2 18 2q20 0 34.5 -14.5t14.5 -43.5q0 -38 -21 -57.5t-51 -19.5q-13 0 -26 2.5
t-20 4.5l-7 3q4 26 10 33q5 2 9.5 0t15 -5.5t19.5 -3.5q34 0 34 36q0 35 -33 35l-39 -6l16 85q-66 4 -98.5 56t-32.5 192q0 69 11.5 120t28.5 79.5t42 45t47.5 21.5t50.5 5q35 0 59.5 -12t24.5 -28z" />
    <glyph glyph-name="egrave" unicode="&#xe8;" horiz-adv-x="375" 
d="M217 510q126 0 126 -158q0 -73 -10 -120q-89 -18 -239 -18q0 -70 15.5 -108.5t39 -50t62.5 -11.5q72 0 120 34q7 -18 7 -39q0 -18 -41 -33.5t-95 -15.5q-39 0 -66 8.5t-51 32t-35.5 71.5t-11.5 121q0 74 11 128t27.5 84t42 47.5t47.5 22.5t51 5zM212 460q-22 0 -39 -7
t-35 -26t-29.5 -61.5t-13.5 -105.5q134 0 190 14q4 32 4 67q-1 63 -17.5 91t-59.5 28zM235 583q-3 0 -68.5 49.5t-72.5 56.5q2 13 9.5 28t16.5 15q3 0 65.5 -53t70.5 -64q-11 -32 -21 -32z" />
    <glyph glyph-name="eacute" unicode="&#xe9;" horiz-adv-x="375" 
d="M217 510q126 0 126 -158q0 -73 -10 -120q-89 -18 -239 -18q0 -70 15.5 -108.5t39 -50t62.5 -11.5q72 0 120 34q7 -18 7 -39q0 -18 -41 -33.5t-95 -15.5q-39 0 -66 8.5t-51 32t-35.5 71.5t-11.5 121q0 74 11 128t27.5 84t42 47.5t47.5 22.5t51 5zM212 460q-22 0 -39 -7
t-35 -26t-29.5 -61.5t-13.5 -105.5q134 0 190 14q4 32 4 67q-1 63 -17.5 91t-59.5 28zM191 578q-5 0 -10.5 8t-8.5 16l-3 8q25 26 58 55t54.5 46t23.5 17q9 0 16.5 -15.5t9.5 -28.5q-6 -8 -54 -44.5t-86 -61.5z" />
    <glyph glyph-name="ecircumflex" unicode="&#xea;" horiz-adv-x="375" 
d="M217 510q126 0 126 -158q0 -73 -10 -120q-89 -18 -239 -18q0 -70 15.5 -108.5t39 -50t62.5 -11.5q72 0 120 34q7 -18 7 -39q0 -18 -41 -33.5t-95 -15.5q-39 0 -66 8.5t-51 32t-35.5 71.5t-11.5 121q0 74 11 128t27.5 84t42 47.5t47.5 22.5t51 5zM212 460q-22 0 -39 -7
t-35 -26t-29.5 -61.5t-13.5 -105.5q134 0 190 14q4 32 4 67q-1 63 -17.5 91t-59.5 28zM87 599l111 114q6 2 13 2q12 0 20 -9q97 -98 97 -107q0 -6 -13 -13t-28 -7q-70 73 -77 86q-73 -85 -85 -85q-24 0 -38 19z" />
    <glyph glyph-name="edieresis" unicode="&#xeb;" horiz-adv-x="375" 
d="M217 510q126 0 126 -158q0 -73 -10 -120q-89 -18 -239 -18q0 -70 15.5 -108.5t39 -50t62.5 -11.5q72 0 120 34q7 -18 7 -39q0 -18 -41 -33.5t-95 -15.5q-39 0 -66 8.5t-51 32t-35.5 71.5t-11.5 121q0 74 11 128t27.5 84t42 47.5t47.5 22.5t51 5zM212 460q-22 0 -39 -7
t-35 -26t-29.5 -61.5t-13.5 -105.5q134 0 190 14q4 32 4 67q-1 63 -17.5 91t-59.5 28zM101 649q0 17 10.5 29t28.5 12q19 0 29.5 -11.5t10.5 -29.5t-11 -29.5t-29 -11.5q-39 0 -39 41zM242 649q0 17 10.5 29t28.5 12q19 0 29.5 -11.5t10.5 -29.5t-11 -29.5t-29 -11.5
q-39 0 -39 41z" />
    <glyph glyph-name="igrave" unicode="&#xec;" horiz-adv-x="171" 
d="M114 500v-487q0 -10 -7.5 -11.5t-49.5 -1.5v473q0 19 10.5 23t46.5 4zM112 583q-3 0 -68.5 49.5t-72.5 56.5q2 13 9.5 28t16.5 15q3 0 65.5 -53t70.5 -64q-11 -32 -21 -32z" />
    <glyph glyph-name="iacute" unicode="&#xed;" horiz-adv-x="171" 
d="M114 500v-487q0 -10 -7.5 -11.5t-49.5 -1.5v473q0 19 10.5 23t46.5 4zM67 578q-5 0 -10.5 8t-8.5 16l-3 8q25 26 58 55t54.5 46t23.5 17q9 0 16.5 -15.5t9.5 -28.5q-6 -8 -54 -44.5t-86 -61.5z" />
    <glyph glyph-name="icircumflex" unicode="&#xee;" horiz-adv-x="171" 
d="M114 500v-487q0 -10 -7.5 -11.5t-49.5 -1.5v473q0 19 10.5 23t46.5 4zM-37 599l111 114q6 2 13 2q12 0 20 -9q97 -98 97 -107q0 -6 -13 -13t-28 -7q-70 73 -77 86q-73 -85 -85 -85q-24 0 -38 19z" />
    <glyph glyph-name="idieresis" unicode="&#xef;" horiz-adv-x="171" 
d="M114 500v-487q0 -10 -7.5 -11.5t-49.5 -1.5v473q0 19 10.5 23t46.5 4zM-23 649q0 17 10.5 29t28.5 12q19 0 29.5 -11.5t10.5 -29.5t-11 -29.5t-29 -11.5q-39 0 -39 41zM118 649q0 17 10.5 29t28.5 12q19 0 29.5 -11.5t10.5 -29.5t-11 -29.5t-29 -11.5q-39 0 -39 41z" />
    <glyph glyph-name="eth" unicode="&#xf0;" horiz-adv-x="437" 
d="M350 664l-48 -19q98 -131 98 -356q0 -66 -6.5 -114.5t-24.5 -93t-54 -68t-89 -23.5q-92 0 -136 63t-44 204q0 122 45 187t126 65q69 0 110 -45q-22 90 -77 160l-96 -38q-16 41 -11 47q2 3 6 4l66 26q-22 22 -63 54q14 27 38 27q13 0 23 -10q32 -25 55 -50l77 31
q15 -41 11 -47q-2 -2 -6 -4zM345 292q0 46 -5 96q-42 70 -111 70q-62 0 -95 -55t-33 -154q0 -211 124 -211q39 0 64 20t36.5 59t15.5 78.5t4 96.5z" />
    <glyph glyph-name="ntilde" unicode="&#xf1;" horiz-adv-x="401" 
d="M55 0v475q81 35 162 35q78 0 107.5 -32t29.5 -105v-360q0 -10 -7 -11.5t-49 -1.5v358q0 57 -16.5 80t-66.5 23q-62 0 -105 -23v-425q0 -10 -7 -11.5t-48 -1.5zM69 624q40 68 102 68q23 0 46.5 -25.5t44.5 -25.5q23 0 37.5 11.5t21.5 22.5t11 11q6 0 11.5 -8t8.5 -16l2 -8
q-6 -13 -16.5 -26t-33.5 -26.5t-49 -13.5q-32 0 -55.5 26.5t-38.5 26.5q-17 0 -30 -11.5t-21 -22.5t-12 -11q-7 0 -14 7t-11 14z" />
    <glyph glyph-name="ograve" unicode="&#xf2;" horiz-adv-x="383" 
d="M31 249q0 261 167 261q81 0 118 -56t37 -204q0 -260 -166 -260q-40 0 -66 9t-48 35.5t-32 79t-10 135.5zM90 245q0 -84 12.5 -130.5t32.5 -61.5t54 -15q105 0 105 214q0 123 -23.5 166t-74.5 43q-52 0 -79 -48.5t-27 -167.5zM223 583q-3 0 -68.5 49.5t-72.5 56.5
q2 13 9.5 28t16.5 15q3 0 65.5 -53t70.5 -64q-11 -32 -21 -32z" />
    <glyph glyph-name="oacute" unicode="&#xf3;" horiz-adv-x="383" 
d="M31 249q0 261 167 261q81 0 118 -56t37 -204q0 -260 -166 -260q-40 0 -66 9t-48 35.5t-32 79t-10 135.5zM90 245q0 -84 12.5 -130.5t32.5 -61.5t54 -15q105 0 105 214q0 123 -23.5 166t-74.5 43q-52 0 -79 -48.5t-27 -167.5zM178 578q-5 0 -10.5 8t-8.5 16l-3 8
q25 26 58 55t54.5 46t23.5 17q9 0 16.5 -15.5t9.5 -28.5q-6 -8 -54 -44.5t-86 -61.5z" />
    <glyph glyph-name="ocircumflex" unicode="&#xf4;" horiz-adv-x="383" 
d="M31 249q0 261 167 261q81 0 118 -56t37 -204q0 -260 -166 -260q-40 0 -66 9t-48 35.5t-32 79t-10 135.5zM90 245q0 -84 12.5 -130.5t32.5 -61.5t54 -15q105 0 105 214q0 123 -23.5 166t-74.5 43q-52 0 -79 -48.5t-27 -167.5zM74 599l111 114q6 2 13 2q12 0 20 -9
q97 -98 97 -107q0 -6 -13 -13t-28 -7q-70 73 -77 86q-73 -85 -85 -85q-24 0 -38 19z" />
    <glyph glyph-name="otilde" unicode="&#xf5;" horiz-adv-x="383" 
d="M31 249q0 261 167 261q81 0 118 -56t37 -204q0 -260 -166 -260q-40 0 -66 9t-48 35.5t-32 79t-10 135.5zM90 245q0 -84 12.5 -130.5t32.5 -61.5t54 -15q105 0 105 214q0 123 -23.5 166t-74.5 43q-52 0 -79 -48.5t-27 -167.5zM53 624q40 68 102 68q23 0 46.5 -25.5
t44.5 -25.5q23 0 37.5 11.5t21.5 22.5t11 11q6 0 11.5 -8t8.5 -16l2 -8q-6 -13 -16.5 -26t-33.5 -26.5t-49 -13.5q-32 0 -55.5 26.5t-38.5 26.5q-17 0 -30 -11.5t-21 -22.5t-12 -11q-7 0 -14 7t-11 14z" />
    <glyph glyph-name="odieresis" unicode="&#xf6;" horiz-adv-x="383" 
d="M31 249q0 261 167 261q81 0 118 -56t37 -204q0 -260 -166 -260q-40 0 -66 9t-48 35.5t-32 79t-10 135.5zM90 245q0 -84 12.5 -130.5t32.5 -61.5t54 -15q105 0 105 214q0 123 -23.5 166t-74.5 43q-52 0 -79 -48.5t-27 -167.5zM88 649q0 17 10.5 29t28.5 12
q19 0 29.5 -11.5t10.5 -29.5t-11 -29.5t-29 -11.5q-39 0 -39 41zM229 649q0 17 10.5 29t28.5 12q19 0 29.5 -11.5t10.5 -29.5t-11 -29.5t-29 -11.5q-39 0 -39 41z" />
    <glyph glyph-name="divide" unicode="&#xf7;" 
d="M378 257h-336v24t1.5 14.5t4 9.5t7.5 2h337q0 -31 -2 -40.5t-12 -9.5zM175 140q0 18 10.5 30t28.5 12q40 0 40 -42q0 -18 -11 -29.5t-29 -11.5q-39 0 -39 41zM175 418q0 17 10.5 29t28.5 12q40 0 40 -41q0 -18 -11 -30t-29 -12q-39 0 -39 42z" />
    <glyph glyph-name="oslash" unicode="&#xf8;" horiz-adv-x="424" 
d="M60 -22q-9 1 -20.5 7.5t-11.5 16.5q0 5 46 81q-18 57 -18 166q0 261 165 261q76 0 111 -46q30 52 36 58q33 -8 33 -24q0 -8 -45 -80q21 -60 21 -168q0 -260 -161 -260q-87 0 -120 48q-26 -45 -36 -60zM318 252q0 73 -10 123l-172 -290q22 -47 77 -47q105 0 105 214z
M114 245q0 -67 8 -113l170 289q-21 40 -72 40t-78.5 -48.5t-27.5 -167.5z" />
    <glyph glyph-name="ugrave" unicode="&#xf9;" horiz-adv-x="416" 
d="M357 500v-475q-67 -35 -152 -35t-116 40.5t-31 138.5v317q0 11 7 12.5t49 1.5v-338q0 -71 19.5 -97t76.5 -26q54 0 92 23v424q0 10 7.5 12t47.5 2zM237 583q-3 0 -68.5 49.5t-72.5 56.5q2 13 9.5 28t16.5 15q3 0 65.5 -53t70.5 -64q-11 -32 -21 -32z" />
    <glyph glyph-name="uacute" unicode="&#xfa;" horiz-adv-x="416" 
d="M357 500v-475q-67 -35 -152 -35t-116 40.5t-31 138.5v317q0 11 7 12.5t49 1.5v-338q0 -71 19.5 -97t76.5 -26q54 0 92 23v424q0 10 7.5 12t47.5 2zM192 578q-5 0 -10.5 8t-8.5 16l-3 8q25 26 58 55t54.5 46t23.5 17q9 0 16.5 -15.5t9.5 -28.5q-6 -8 -54 -44.5t-86 -61.5z
" />
    <glyph glyph-name="ucircumflex" unicode="&#xfb;" horiz-adv-x="416" 
d="M357 500v-475q-67 -35 -152 -35t-116 40.5t-31 138.5v317q0 11 7 12.5t49 1.5v-338q0 -71 19.5 -97t76.5 -26q54 0 92 23v424q0 10 7.5 12t47.5 2zM88 599l111 114q6 2 13 2q12 0 20 -9q97 -98 97 -107q0 -6 -13 -13t-28 -7q-70 73 -77 86q-73 -85 -85 -85q-24 0 -38 19z
" />
    <glyph glyph-name="udieresis" unicode="&#xfc;" horiz-adv-x="416" 
d="M357 500v-475q-67 -35 -152 -35t-116 40.5t-31 138.5v317q0 11 7 12.5t49 1.5v-338q0 -71 19.5 -97t76.5 -26q54 0 92 23v424q0 10 7.5 12t47.5 2zM102 649q0 17 10.5 29t28.5 12q19 0 29.5 -11.5t10.5 -29.5t-11 -29.5t-29 -11.5q-39 0 -39 41zM243 649q0 17 10.5 29
t28.5 12q19 0 29.5 -11.5t10.5 -29.5t-11 -29.5t-29 -11.5q-39 0 -39 41z" />
    <glyph glyph-name="yacute" unicode="&#xfd;" horiz-adv-x="370" 
d="M163 -16l-130 499q-3 13 4 15t49 2l75 -294q5 -21 29 -155q9 69 27 156l67 276q2 13 9.5 15t49.5 2l-132 -531q-22 -89 -54 -125.5t-83 -36.5q-73 0 -73 30q0 18 10 32q28 -14 61 -14q63 0 91 129zM173 578q-5 0 -10.5 8t-8.5 16l-3 8q25 26 58 55t54.5 46t23.5 17
q9 0 16.5 -15.5t9.5 -28.5q-6 -8 -54 -44.5t-86 -61.5z" />
    <glyph glyph-name="thorn" unicode="&#xfe;" horiz-adv-x="400" 
d="M112 735v-239q39 13 89 13q82 0 123.5 -47.5t41.5 -167.5q0 -76 -12 -133.5t-30 -88.5t-42.5 -50.5t-44 -25t-40.5 -5.5q-56 0 -85 31v-218q-12 -4 -32 -4q-14 0 -18.5 4t-4.5 18v886q0 19 9.5 23t45.5 4zM112 434v-357q23 -38 70 -38q15 0 29 5t32 21t31.5 41.5
t22.5 72.5t9 109q0 100 -26 136t-80 36q-51 0 -88 -26z" />
    <glyph glyph-name="ydieresis" unicode="&#xff;" horiz-adv-x="370" 
d="M163 -16l-130 499q-3 13 4 15t49 2l75 -294q5 -21 29 -155q9 69 27 156l67 276q2 13 9.5 15t49.5 2l-132 -531q-22 -89 -54 -125.5t-83 -36.5q-73 0 -73 30q0 18 10 32q28 -14 61 -14q63 0 91 129zM83 649q0 17 10.5 29t28.5 12q19 0 29.5 -11.5t10.5 -29.5t-11 -29.5
t-29 -11.5q-39 0 -39 41zM224 649q0 17 10.5 29t28.5 12q19 0 29.5 -11.5t10.5 -29.5t-11 -29.5t-29 -11.5q-39 0 -39 41z" />
    <glyph glyph-name="dotlessi" unicode="&#x131;" horiz-adv-x="171" 
d="M114 500v-487q0 -10 -7.5 -11.5t-49.5 -1.5v473q0 19 10.5 23t46.5 4z" />
    <glyph glyph-name="Lslash" unicode="&#x141;" horiz-adv-x="329" 
d="M111 700v-301l102 33q9 -29 9.5 -38t-8.5 -14l-103 -34v-294h198v-39q0 -13 -14 -13h-240v327l-41 -13q-8 30 -8.5 38.5t8.5 14.5l41 13v300q0 15 7 17.5t49 2.5z" />
    <glyph glyph-name="lslash" unicode="&#x142;" horiz-adv-x="170" 
d="M112 735v-346l51 17q4 -16 6 -23t2.5 -14.5t-1.5 -10t-7 -4.5l-51 -17v-324q0 -10 -6.5 -11.5t-48.5 -1.5v318l-50 -16l-6 22.5t-2.5 14.5t1.5 10.5t7 4.5l50 16v338q0 19 9.5 23t45.5 4z" />
    <glyph glyph-name="OE" unicode="&#x152;" horiz-adv-x="627" 
d="M402 51h197q0 -36 -1.5 -43.5t-11.5 -7.5h-232v65q-41 -74 -136 -74q-99 0 -140.5 78.5t-41.5 284.5q0 190 46 273t144 83q88 0 128 -65v41q0 14 13 14h233q0 -35 -1.5 -43t-9.5 -8h-187v-241h175q0 -34 -1.5 -42.5t-10.5 -8.5h-163v-306zM97 338q0 -159 27.5 -226.5
t94.5 -67.5q68 0 95 70.5t27 242.5q0 168 -24.5 234t-89.5 66q-68 0 -99 -73.5t-31 -245.5z" />
    <glyph glyph-name="oe" unicode="&#x153;" horiz-adv-x="643" 
d="M37 249q0 261 166 261q99 0 132 -83q24 51 60.5 67t86.5 16q126 0 126 -155q0 -76 -10 -123q-89 -18 -239 -18q0 -56 8 -91.5t24.5 -52t34 -21.5t46.5 -5q76 0 124 34q7 -18 7 -51q0 -6 -18 -14.5t-51 -15.5t-67 -7q-53 0 -87.5 16t-53.5 62q-41 -78 -128 -78
q-42 0 -69 9t-49.5 35.5t-32.5 79t-10 135.5zM96 245q0 -84 12.5 -130.5t32.5 -61.5t54 -15q105 0 105 214q0 123 -23.5 165.5t-74.5 42.5q-52 0 -79 -48t-27 -167zM477 460q-23 0 -39.5 -6t-35 -25t-30 -61.5t-13.5 -107.5q135 0 191 14q4 32 4 70q-1 63 -17.5 89.5
t-59.5 26.5z" />
    <glyph glyph-name="Scaron" unicode="&#x160;" horiz-adv-x="369" 
d="M203 710q62 0 94 -13t32 -31t-15 -33q-36 27 -107 27q-52 0 -83 -23t-31 -61q0 -46 55 -108l119 -123q41 -44 56.5 -82.5t15.5 -89.5q0 -84 -42 -133.5t-132 -49.5q-63 0 -97.5 17t-34.5 36q0 23 16 39q38 -36 112 -36q120 0 120 122q0 42 -15.5 76t-54.5 76l-108 113
q-68 76 -68 142q0 60 44.5 97.5t123.5 37.5zM204 780q-10 0 -61.5 50t-61.5 63q4 11 12.5 22.5t15.5 11.5q6 0 30 -23.5t45 -47.5l21 -23q18 23 39 47t34 36l12 13q23 -13 23 -27q0 -11 -49.5 -66.5t-59.5 -55.5z" />
    <glyph glyph-name="scaron" unicode="&#x161;" horiz-adv-x="368" 
d="M204 510q43 0 74 -9.5t42 -20.5t11 -20q0 -15 -13 -31q-49 32 -109 32q-47 0 -76 -17t-29 -48q0 -37 49 -70l108 -77q68 -56 68 -124q0 -65 -43.5 -100t-120.5 -35q-57 0 -91.5 12.5t-34.5 30.5t12 34q43 -26 109 -26q108 0 108 77q0 55 -56 97l-105 76q-39 27 -52.5 51
t-13.5 54q0 53 43.5 83.5t119.5 30.5zM206 580q-10 0 -61.5 50t-61.5 63q4 11 12.5 22.5t15.5 11.5q6 0 30 -23.5t45 -47.5l21 -23q18 23 39 47t34 36l12 13q23 -13 23 -27q0 -11 -49.5 -66.5t-59.5 -55.5z" />
    <glyph glyph-name="Ydieresis" unicode="&#x178;" horiz-adv-x="361" 
d="M155 0v284l-149 407q-2 7 6 8t56 1l48 -143q19 -52 42 -128t26 -94q8 53 68 223l44 132q2 7 10 8.5t50 1.5l-146 -414v-273q0 -10 -6.5 -11.5t-48.5 -1.5zM76 849q0 17 10.5 29t28.5 12q19 0 29.5 -11.5t10.5 -29.5t-11 -29.5t-29 -11.5q-39 0 -39 41zM217 849
q0 17 10.5 29t28.5 12q19 0 29.5 -11.5t10.5 -29.5t-11 -29.5t-29 -11.5q-39 0 -39 41z" />
    <glyph glyph-name="Zcaron" unicode="&#x17d;" horiz-adv-x="393" 
d="M50 648v38q0 14 14 14h298q6 -8 6 -19q0 -13 -6 -28l-278 -603h225q37 0 53 6v-43q0 -13 -13 -13h-317q-9 7 -9 22q0 14 5 27l275 601h-212q-31 0 -41 -2zM218 780q-10 0 -61.5 50t-61.5 63q4 11 12.5 22.5t15.5 11.5q6 0 30 -23.5t45 -47.5l21 -23q18 23 39 47t34 36
l12 13q23 -13 23 -27q0 -11 -49.5 -66.5t-59.5 -55.5z" />
    <glyph glyph-name="zcaron" unicode="&#x17e;" horiz-adv-x="364" 
d="M52 500h276q6 -6 6 -18q0 -15 -7 -29l-233 -401h116q86 0 121 8q1 -6 1 -26q0 -34 -21 -34h-272q-10 9 -10 28q0 12 6 22l235 402h-121q-73 0 -113 -5q-2 13 -2 27q0 26 18 26zM191 580q-10 0 -61.5 50t-61.5 63q4 11 12.5 22.5t15.5 11.5q6 0 30 -23.5t45 -47.5l21 -23
q18 23 39 47t33 36l13 13q23 -13 23 -27q0 -11 -49.5 -66.5t-59.5 -55.5z" />
    <glyph glyph-name="longs" unicode="&#x17f;" horiz-adv-x="174" 
d="M59 59v528q0 81 41.5 116t123.5 35q48 0 82 -14.5t34 -29.5q0 -22 -14 -38q-42 33 -103 33q-58 0 -83.5 -27.5t-25.5 -95.5v-548q0 -16 -6.5 -21t-25.5 -5q-10 0 -17.5 2t-10.5 4l-2 3q7 23 7 58z" />
    <glyph glyph-name="florin" unicode="&#x192;" horiz-adv-x="477" 
d="M411 450h-145v-476q0 -47 -10.5 -80t-25.5 -50t-39 -26.5t-42.5 -11.5t-45.5 -2q-41 0 -64 9.5t-23 21.5q0 15 7 32q32 -12 74 -12q26 0 41.5 3t34.5 13.5t28.5 35.5t9.5 65v478h-136v24t1.5 14.5t4 9.5t7.5 2h123v68q0 46 10.5 79t25.5 50t39 26.5t42.5 11.5t45.5 2
q41 0 63.5 -9t22.5 -22q0 -16 -6 -31q-33 12 -74 12q-26 0 -42 -3t-35 -13.5t-28 -36t-9 -65.5v-69h159q0 -32 -2 -41t-12 -9z" />
    <glyph glyph-name="uni0237" unicode="&#x237;" horiz-adv-x="182" 
d="M119 500v-537q0 -76 -26 -117t-97 -41q-51 0 -80 13.5t-29 32.5t9 31q43 -26 96 -26q45 0 58.5 26.5t13.5 91.5v499q0 19 9.5 23t45.5 4z" />
    <glyph glyph-name="circumflex" unicode="&#x2c6;" horiz-adv-x="241" 
d="M0 599l111 114q6 2 13 2q12 0 20 -9q97 -98 97 -107q0 -6 -13 -13t-28 -7q-70 73 -77 86q-73 -85 -85 -85q-24 0 -38 19z" />
    <glyph glyph-name="caron" unicode="&#x2c7;" horiz-adv-x="232" 
d="M123 580q-10 0 -61.5 50t-61.5 63q4 11 12.5 22.5t15.5 11.5q6 0 30 -23.5t45 -47.5l21 -23q18 23 39 47t33 36l13 13q23 -13 23 -27q0 -11 -49.5 -66.5t-59.5 -55.5z" />
    <glyph glyph-name="breve" unicode="&#x2d8;" horiz-adv-x="244" 
d="M31 720q32 -87 89 -87q23 0 41 13.5t25 26.5t17 36q8 14 23.5 5.5t17.5 -24.5q-35 -110 -125 -110q-49 0 -84 40t-35 70q0 21 31 30z" />
    <glyph glyph-name="dotaccent" unicode="&#x2d9;" horiz-adv-x="65" 
d="M1 669q0 46 33 46q31 0 31 -45q-2 -47 -34 -47q-31 0 -30 46z" />
    <glyph glyph-name="ring" unicode="&#x2da;" horiz-adv-x="180" 
d="M0 664q0 91 94 91q45 0 65.5 -20t20.5 -70q0 -91 -93 -91q-43 0 -65 20.5t-22 69.5zM43 662q0 -48 45 -48q50 0 50 51q0 49 -44 49q-26 0 -38.5 -12t-12.5 -40z" />
    <glyph glyph-name="ogonek" unicode="&#x2db;" horiz-adv-x="128" 
d="M90 16q11 6 19 4q14 -3 18 -20q-30 -16 -53.5 -47t-23.5 -61q0 -44 40 -44q15 0 30 8q5 -9 7 -20q0 -9 -1 -12q-4 -19 -49 -19q-77 0 -77 81q0 43 28.5 81.5t61.5 48.5z" />
    <glyph glyph-name="tilde" unicode="&#x2dc;" horiz-adv-x="285" 
d="M0 624q40 68 102 68q23 0 46.5 -25.5t44.5 -25.5q23 0 37.5 11.5t21.5 22.5t11 11q6 0 11.5 -8t7.5 -16l3 -8q-6 -13 -16.5 -26t-33.5 -26.5t-49 -13.5q-32 0 -55.5 26.5t-38.5 26.5q-17 0 -30 -11.5t-21 -22.5t-12 -11q-7 0 -14 7t-11 14z" />
    <glyph glyph-name="hungarumlaut" unicode="&#x2dd;" horiz-adv-x="296" 
d="M52 592l100 148q6 11 20 11q6 0 12 -3q6 6 16 6q13 0 24 -9t12 -24l-112 -145q-5 -8 -15 -8q-9 0 -16 6l-1 -2q-5 -5 -13 -5q-10 0 -18 7.5t-9 17.5z" />
    <glyph glyph-name="Delta" unicode="&#x394;" horiz-adv-x="440" 
d="M28 0l160 667q7 36 40 36q18 0 27 -7l165 -696h-392zM223 620l-131 -568h266l-132 568h-3z" />
    <glyph glyph-name="Delta" unicode="&#x2206;" horiz-adv-x="440" 
d="M28 0l160 667q7 36 40 36q18 0 27 -7l165 -696h-392zM223 620l-131 -568h266l-132 568h-3z" />
    <glyph glyph-name="Omega" unicode="&#x3a9;" horiz-adv-x="461" 
d="M393 0h-133q39 59 68 153.5t29 200.5q0 165 -29 232t-93 67q-67 0 -99 -64.5t-32 -225.5q0 -107 28 -209t65 -154h-147q-4 12 -4 24q0 28 19 28h65q-82 121 -82 325q0 174 46.5 253.5t146.5 79.5q94 0 132.5 -75t38.5 -254q0 -118 -26.5 -203t-58.5 -126h82q5 -15 5 -25
q0 -27 -21 -27z" />
    <glyph glyph-name="Omega" unicode="&#x2126;" horiz-adv-x="461" 
d="M393 0h-133q39 59 68 153.5t29 200.5q0 165 -29 232t-93 67q-67 0 -99 -64.5t-32 -225.5q0 -107 28 -209t65 -154h-147q-4 12 -4 24q0 28 19 28h65q-82 121 -82 325q0 174 46.5 253.5t146.5 79.5q94 0 132.5 -75t38.5 -254q0 -118 -26.5 -203t-58.5 -126h82q5 -15 5 -25
q0 -27 -21 -27z" />
    <glyph glyph-name="pi" unicode="&#x3c0;" horiz-adv-x="442" 
d="M385 447h-40v-431q0 -20 -29 -20q-14 0 -26 4v447h-144v-431q0 -20 -29 -20q-10 0 -26 4v447h-52q-5 10 -5 23q0 30 20 30h347q5 -12 5 -26q0 -27 -21 -27z" />
    <glyph glyph-name="endash" unicode="&#x2013;" horiz-adv-x="436" 
d="M379 257h-336v24t1.5 14.5t4 9.5t7.5 2h337q0 -31 -2 -40.5t-12 -9.5z" />
    <glyph glyph-name="emdash" unicode="&#x2014;" horiz-adv-x="700" 
d="M680 257h-674v24t1.5 14.5t4 9.5t7.5 2h675q0 -31 -2 -40.5t-12 -9.5z" />
    <glyph glyph-name="quoteleft" unicode="&#x2018;" horiz-adv-x="159" 
d="M118 620q0 -18 -11 -29.5t-28 -11.5q-42 0 -42 48q0 45 24 104.5t37 59.5q20 0 23 -18q-21 -42 -23 -113q20 -12 20 -40z" />
    <glyph glyph-name="quoteright" unicode="&#x2019;" horiz-adv-x="159" 
d="M41 745q0 18 11 29.5t29 11.5q41 0 41 -48q0 -45 -24 -104.5t-37 -59.5q-19 0 -23 18q21 43 23 113q-20 12 -20 40z" />
    <glyph glyph-name="quotesinglbase" unicode="&#x201a;" horiz-adv-x="157" 
d="M41 59q0 18 11 29.5t29 11.5q41 0 41 -48q0 -44 -24 -104t-37 -60q-19 0 -23 18q21 44 23 113q-20 12 -20 40z" />
    <glyph glyph-name="quotedblleft" unicode="&#x201c;" horiz-adv-x="298" 
d="M118 620q0 -18 -11 -29.5t-28 -11.5q-42 0 -42 48q0 45 24 104.5t37 59.5q20 0 23 -18q-21 -42 -23 -113q20 -12 20 -40zM256 620q0 -18 -10.5 -29.5t-28.5 -11.5q-41 0 -41 48q0 45 23.5 104.5t37.5 59.5q19 0 23 -18q-21 -42 -23 -113q19 -12 19 -40z" />
    <glyph glyph-name="quotedblright" unicode="&#x201d;" horiz-adv-x="298" 
d="M180 745q0 17 11 29t28 12q41 0 41 -48q0 -45 -23.5 -104.5t-36.5 -59.5q-20 0 -24 18q22 42 24 113q-20 12 -20 40zM41 745q0 18 11 29.5t29 11.5q41 0 41 -48q0 -45 -24 -104.5t-37 -59.5q-19 0 -23 18q21 43 23 113q-20 12 -20 40z" />
    <glyph glyph-name="quotedblbase" unicode="&#x201e;" horiz-adv-x="296" 
d="M180 59q0 18 11 29.5t28 11.5q41 0 41 -48q0 -44 -23.5 -104t-36.5 -60q-20 0 -24 18q22 43 24 113q-20 12 -20 40zM41 59q0 18 11 29.5t29 11.5q41 0 41 -48q0 -44 -24 -104t-37 -60q-19 0 -23 18q21 44 23 113q-20 12 -20 40z" />
    <glyph glyph-name="dagger" unicode="&#x2020;" horiz-adv-x="431" 
d="M201 507l-15 174q-2 12 8 19t24 7q19 0 29 -13l-14 -179q-3 -11 -13.5 -13t-18.5 5zM248 496l120 15q12 4 19 -6t7 -25q0 -20 -13 -30l-126 14q-10 2 -11.5 13t4.5 19zM184 465l-121 -14q-11 -1 -18.5 8t-7.5 22q0 19 13 31l127 -15q11 -3 12.5 -13.5t-5.5 -18.5z
M232 450l14 -429q1 -12 -8 -19.5t-22 -7.5q-21 0 -30 14l14 434q1 8 7 11.5t13 2.5t12 -6z" />
    <glyph glyph-name="daggerdbl" unicode="&#x2021;" horiz-adv-x="431" 
d="M197 246v192q0 13 11.5 16.5t26.5 -3.5v-191q0 -13 -10.5 -16.5t-27.5 2.5zM201 507l-15 174q-2 12 8 19t24 7q19 0 29 -13l-14 -179q-3 -11 -13.5 -13t-18.5 5zM248 496l120 15q12 4 19 -6t7 -25q0 -20 -13 -30l-126 14q-10 2 -11.5 13t4.5 19zM184 465l-121 -14
q-11 -1 -18.5 8t-7.5 22q0 19 13 31l127 -15q11 -3 12.5 -13.5t-5.5 -18.5zM230 192l15 -168q2 -13 -7.5 -20t-24.5 -7q-18 0 -29 13l15 174q2 11 12.5 13t18.5 -5zM183 203l-120 -15q-12 -4 -19 6t-7 25q0 20 13 30l126 -14q10 -3 11.5 -13.5t-4.5 -18.5zM247 233l121 14
q11 2 18.5 -7t7.5 -23q0 -18 -13 -31l-126 15q-12 3 -13.5 13.5t5.5 18.5z" />
    <glyph glyph-name="bullet" unicode="&#x2022;" horiz-adv-x="214" 
d="M51 282q0 27 16.5 46t43.5 19q30 0 46.5 -18t16.5 -47q0 -28 -17 -46.5t-46 -18.5q-60 0 -60 65z" />
    <glyph glyph-name="ellipsis" unicode="&#x2026;" horiz-adv-x="488" 
d="M44 40q0 19 11.5 32t30.5 13q44 0 44 -45q0 -19 -12 -32t-32 -13q-42 0 -42 45zM201 40q0 19 11.5 32t30.5 13q44 0 44 -45q0 -19 -12 -32t-32 -13q-42 0 -42 45zM358 40q0 19 11.5 32t30.5 13q44 0 44 -45q0 -19 -12 -32t-32 -13q-42 0 -42 45z" />
    <glyph glyph-name="perthousand" unicode="&#x2030;" horiz-adv-x="1002" 
d="M146 -10q-34 7 -34 22l422 697q32 -9 32 -25q0 -3 -105 -176.5l-210 -345.5zM61 525q0 184 141 184q69 0 101 -40t32 -143q0 -185 -138 -185q-35 0 -58 7t-42 26t-27.5 56t-8.5 95zM114 521q0 -79 19.5 -107.5t62.5 -28.5q87 0 87 141q0 80 -19.5 109t-61.5 29
q-88 0 -88 -143zM365 176q0 184 141 184q69 0 101 -40.5t32 -143.5q0 -185 -137 -185q-72 0 -104.5 37t-32.5 148zM418 172q0 -80 19.5 -108.5t62.5 -28.5q88 0 88 141q0 80 -19.5 109.5t-61.5 29.5q-89 0 -89 -143zM666 176q0 184 142 184q69 0 101 -40.5t32 -143.5
q0 -185 -138 -185q-35 0 -58 7t-42 26t-28 56.5t-9 95.5zM719 172q0 -79 20 -108t63 -29q87 0 87 141q0 80 -19.5 109.5t-61.5 29.5q-89 0 -89 -143z" />
    <glyph glyph-name="guilsinglleft" unicode="&#x2039;" horiz-adv-x="256" 
d="M28 250q0 12 37.5 74.5l74.5 119.5l37 56q9 0 17.5 -7t11.5 -14l4 -7q0 -12 -32 -67.5t-64 -104.5l-33 -50q133 -193 133 -216q-13 -34 -32 -34q-154 222 -154 250z" />
    <glyph glyph-name="guilsinglright" unicode="&#x203a;" horiz-adv-x="256" 
d="M228 250q0 -12 -38 -74.5l-76 -119.5l-39 -56q-4 1 -9 3t-14 10.5t-9 19.5t33.5 65l66.5 103l33 49q-130 195 -130 222q0 9 8.5 16t17.5 10l8 2q148 -224 148 -250z" />
    <glyph glyph-name="fraction" unicode="&#x2044;" horiz-adv-x="196" 
d="M332 689l-400 -689q-4 -9 -16 -9q-24 0 -38 22l399 684q4 13 18 13q21 0 37 -21z" />
    <glyph glyph-name="uni2074" unicode="&#x2074;" horiz-adv-x="410" 
d="M299 707v-291h70q5 -12 5 -27q0 -26 -17 -26h-58v-60q0 -19 -30 -19q-10 0 -22 3v76h-187q-8 9 -8 26q0 11 7 31q20 62 72 143.5t100 127.5q18 19 45 19q5 0 23 -3zM106 413h142l2 228q-38 -34 -82 -101.5t-62 -126.5z" />
    <glyph glyph-name="Euro" unicode="&#x20ac;" 
d="M303 606q30 0 53 -8t32.5 -16.5t9.5 -14.5q0 -26 -11 -37q-8 7 -29.5 15.5t-43.5 8.5t-40 -5t-38 -20t-35 -48t-23 -82h163q0 -27 -4.5 -36.5t-18.5 -9.5h-146q-3 -37 -3 -83v-14h135q0 -27 -4.5 -36.5t-18.5 -9.5h-110q4 -54 15 -89t29 -51t35 -21t42 -5q61 0 97 36
q9 -18 9 -37q0 -15 -35.5 -34t-79.5 -19q-36 0 -61.5 7.5t-50 29t-39.5 67.5t-19 116h-91q0 27 4.5 36.5t18.5 9.5h66v14q0 46 3 83h-92q0 27 4.5 36.5t18.5 9.5h74q10 64 29.5 107.5t46 64t52 28t56.5 7.5z" />
    <glyph glyph-name="trademark" unicode="&#x2122;" horiz-adv-x="530" 
d="M270 383v307q0 10 10 10h21l50 -139l24 -61q17 50 20 60l48 130q3 10 10 10h24v-307q0 -7 -4 -8.5t-30 -1.5l1 114q0 17 3 116l-11.5 -32l-10.5 -30t-5 -14l-33 -86q-2 -5 -5 -5h-21l-35 91l-27 74q4 -100 4 -115l1 -103q0 -7 -4.5 -8.5t-29.5 -1.5zM237 668h-76v-276
q0 -7 -4.5 -8t-29.5 -1v285h-93v22q0 9 10 10h202v-22q0 -9 -9 -10z" />
    <glyph glyph-name="partialdiff" unicode="&#x2202;" horiz-adv-x="437" 
d="M217 509q69 0 110 -45q-37 149 -174 252q11 27 38 27q13 0 22 -9q96 -73 141.5 -180t45.5 -265q0 -66 -6.5 -114.5t-24.5 -93t-54 -68t-89 -23.5q-92 0 -136 63t-44 204q0 122 45 187t126 65zM345 292q0 46 -5 96q-42 70 -111 70q-62 0 -95 -55t-33 -154q0 -211 124 -211
q39 0 64 20t36.5 59t15.5 78.5t4 96.5z" />
    <glyph glyph-name="product" unicode="&#x220f;" horiz-adv-x="442" 
d="M385 647h-40v-820q0 -20 -29 -20q-8 0 -26 4v836h-144v-820q0 -20 -29 -20q-10 0 -26 4v836h-52q-5 10 -5 23q0 30 20 30h347q5 -12 5 -26q0 -27 -21 -27z" />
    <glyph glyph-name="summation" unicode="&#x2211;" horiz-adv-x="406" 
d="M319 -190h-261l163 401l-162 489h271q3 -15 3 -21q0 -31 -19 -31h-176l140 -441l-143 -345h200q3 -12 3 -24q0 -28 -19 -28z" />
    <glyph glyph-name="minus" unicode="&#x2212;" 
d="M378 257h-336v24t1.5 14.5t4 9.5t7.5 2h337q0 -31 -2 -40.5t-12 -9.5z" />
    <glyph glyph-name="radical" unicode="&#x221a;" horiz-adv-x="466" 
d="M164 -188l-109 409q11 13 32 13t24 -15l79 -295l102 776h149q4 -12 4 -26q0 -26 -19 -26h-85l-110 -813q-4 -28 -37 -28q-15 0 -30 5z" />
    <glyph glyph-name="infinity" unicode="&#x221e;" horiz-adv-x="623" 
d="M52 267q0 59 30.5 100.5t102.5 41.5q50 0 79 -24t53 -66q25 42 54.5 66t74.5 24q58 0 91.5 -37t33.5 -105q0 -142 -121 -147q-16 -1 -37 4q-69 13 -105 91q-59 -90 -128 -90q-62 0 -95 40t-33 102zM371 317q-8 -11 -33 -52q38 -92 97 -92q37 0 59.5 24t22.5 70
q0 67 -51 85q-14 4 -31 2q-16 0 -29 -6t-19 -12t-16 -19zM106 267q0 -38 20 -64t57 -26q34 0 57.5 23t46.5 66l-1 4q-12 34 -34 57.5t-52 25.5q-26 1 -44 -6q-50 -18 -50 -80z" />
    <glyph glyph-name="integral" unicode="&#x222b;" horiz-adv-x="477" 
d="M211 -28v596q0 46 10.5 79t25.5 50t39 26.5t42.5 11.5t45.5 2q41 0 63.5 -9t22.5 -22q0 -16 -6 -31q-33 12 -74 12q-26 0 -42 -3t-35 -13.5t-28 -36t-9 -65.5v-595q0 -47 -10.5 -80t-25.5 -50t-39 -26.5t-42.5 -11.5t-45.5 -2q-41 0 -64 9.5t-23 21.5q0 15 7 32
q32 -12 74 -12q26 0 41.5 3t34.5 13.5t28.5 35.5t9.5 65z" />
    <glyph glyph-name="approxequal" unicode="&#x2248;" horiz-adv-x="400" 
d="M15 321q47 62 118 62q34 0 70.5 -24.5t66.5 -24.5q47 0 78 40q8 8 17 5.5t14 -12.5q3 -14 -1 -30q-39 -54 -110 -54q-37 0 -75.5 24t-63.5 24q-16 0 -31.5 -5t-23.5 -10t-20 -13.5t-14 -9.5q-8 -4 -15.5 4t-9.5 24zM15 192q16 23 46 41.5t69 18.5q34 0 72 -24t68 -24
q41 0 89 39q9 4 17 -3.5t10 -22.5q-43 -65 -120 -65q-40 0 -76 25t-60 25q-43 0 -78 -40q-12 -9 -23.5 1.5t-13.5 28.5z" />
    <glyph glyph-name="notequal" unicode="&#x2260;" horiz-adv-x="400" 
d="M360 137h-176l-48 -132q-5 -11 -19 -11q-19 0 -36 19l45 124h-102v24t1.5 14.5t4 9.5t7.5 2h108l46 124h-167v24t1.5 14.5t4 9.5t7.5 2h172l49 132q4 14 19 14t36 -19l-47 -127h108q0 -31 -2 -40.5t-12 -9.5h-112l-45 -124h171q0 -31 -2 -40.5t-12 -9.5z" />
    <glyph glyph-name="lessequal" unicode="&#x2264;" horiz-adv-x="417" 
d="M347 390l-224 -110l238 -103q-1 -19 -9 -31.5t-16 -12.5q-9 0 -24 7l-251 110q-10 14 -10 32q0 21 19 31l268 132q18 -18 20 -37q0 -12 -11 -18zM352 0h-294q0 31 2 40.5t12 9.5h294q0 -32 -2 -41t-12 -9z" />
    <glyph glyph-name="greaterequal" unicode="&#x2265;" horiz-adv-x="412" 
d="M65 184l224 110l-238 104q1 19 9 31.5t17 12.5q4 0 23 -7l251 -110q10 -14 10 -33q0 -21 -19 -31l-269 -132q-18 20 -18 37q0 14 10 18zM344 0h-286q0 31 2 40.5t12 9.5h286q0 -32 -2 -41t-12 -9z" />
    <glyph glyph-name="lozenge" unicode="&#x25ca;" horiz-adv-x="469" 
d="M436 350l-200 -355l-200 355l200 355zM375 350l-139 247l-140 -247l140 -246z" />
    <glyph glyph-name="ff" unicode="&#xfb00;" horiz-adv-x="460" 
d="M304 452h-158v-439q0 -13 -14 -13h-41v452h-76q0 34 2 41t13 7h61v74q0 53 16 88t43.5 49.5t49 19t47.5 4.5q56 0 104 -32q39 36 116 36q86 0 86 -35q0 -12 -6 -27q-32 12 -74 12q-24 0 -41 -4t-35.5 -15.5t-28 -38t-9.5 -66.5v-65h104q0 -34 -1.5 -41t-11.5 -7h-91v-439
q0 -13 -14 -13h-41v452zM146 576v-76h158v63q0 60 18 101q-32 22 -79 22q-16 0 -29 -3t-30.5 -12.5t-27.5 -33.5t-10 -61z" />
    <glyph glyph-name="ffi" unicode="&#xfb03;" horiz-adv-x="615" 
d="M90 452h-76q0 34 2 41t14 7h60v74q0 53 16 88t43.5 49.5t49 19t47.5 4.5q56 0 104 -32q39 36 123 36q101 0 101 -36q0 -18 -6 -33q-41 19 -94 19q-25 0 -42 -3.5t-35.5 -15.5t-28 -39t-9.5 -69v-62h84q0 -34 -2 -41t-12 -7h-70v-439q0 -13 -14 -13h-41v452h-159v-439
q0 -13 -13 -13h-42v452zM304 563q0 63 18 101q-31 22 -79 22q-17 0 -30 -3t-30.5 -12.5t-27.5 -33.5t-10 -61v-76h159v63zM557 500v-487q0 -10 -6.5 -11.5t-48.5 -1.5v473q0 19 10 23t45 4z" />
    <glyph glyph-name="ffl" unicode="&#xfb04;" horiz-adv-x="625" 
d="M567 711v-698q0 -10 -6.5 -11.5t-47.5 -1.5v679q-27 9 -57 9q-22 0 -35.5 -2.5t-29.5 -13t-24 -36t-8 -65.5v-71h84q0 -34 -2 -41t-12 -7h-70v-439q0 -13 -14 -13h-41v452h-159v-439q0 -13 -13 -13h-42v452h-76q0 34 2 41t14 7h60v74q0 53 16 88t43.5 49.5t49 19
t47.5 4.5q53 0 101 -30q35 34 106 34q67 0 114 -27l-1 -1h1zM304 563q0 62 17 101q-31 22 -78 22q-17 0 -30 -3t-30.5 -12.5t-27.5 -33.5t-10 -61v-76h159v63z" />
    <glyph glyph-name="t_z" horiz-adv-x="661" 
d="M101 145v306h-74q0 33 2 41t11 8h61v158q0 16 9 19t46 3v-180h121q0 -33 -2 -41t-10 -8h-109v-307q0 -36 2 -55t12.5 -34.5t31.5 -15.5q30 0 65 16q4 -16 4 -29q0 -18 -23.5 -27t-57.5 -9q-30 0 -48.5 10.5t-27 34t-11 47t-2.5 63.5zM350 500h276q6 -6 6 -18
q0 -15 -7 -29l-233 -401h116q86 0 121 8q1 -6 1 -26q0 -34 -21 -34h-272q-10 9 -10 28q0 12 6 22l235 402h-121q-73 0 -113 -5q-2 13 -2 27q0 26 18 26z" />
    <glyph glyph-name="g.ss01" horiz-adv-x="409" 
d="M186 -200q-57 0 -92.5 15t-35.5 34q0 18 12 33q54 -30 118 -30q44 0 77 24t33 84v78q-16 -19 -47 -33t-67 -14q-67 0 -103 53t-36 190q0 80 17 136.5t47.5 85.5t64 41.5t73.5 12.5q65 0 106 -36v-522q0 -77 -45.5 -114.5t-121.5 -37.5zM299 110v330q-21 23 -66 23
q-24 0 -44.5 -9.5t-41 -33t-32 -71t-11.5 -115.5q0 -193 95 -193q71 0 100 69z" />
    <glyph glyph-name="f.ss02" horiz-adv-x="247" 
d="M89 452h-76q0 34 2 41t14 7h60v121q0 117 108 117q66 0 66 -29q0 -15 -6 -28q-18 9 -51 9q-30 0 -46 -15t-16 -60v-115h104q0 -34 -2 -41t-12 -7h-90v-439q0 -13 -14 -13h-41v452z" />
    <glyph glyph-name="ampersand.ss03" horiz-adv-x="451" 
d="M218 -59v114q-172 6 -172 158q0 61 31 99.5t81 53.5q-38 4 -67.5 33t-29.5 86q0 70 45.5 113t120.5 49v96q0 14 11 18.5t39 4.5v-120q43 -4 77 -20.5t48.5 -31.5t14.5 -25q0 -21 -20 -46q-49 71 -143 71q-61 0 -98.5 -29.5t-37.5 -82.5q0 -84 104 -84q36 0 66 5l-8 -54
q-86 -3 -130.5 -40t-44.5 -92q0 -46 33.5 -76t97.5 -30q105 0 159 79q23 -23 23 -44q0 -7 -8.5 -19t-24.5 -27t-47 -27.5t-70 -16.5v-91q0 -14 -11 -19t-39 -5z" />
    <glyph glyph-name="ampersand.ss04" horiz-adv-x="661" 
d="M291 529q0 62 -18 88t-52 26q-46 0 -81 -47t-40 -164q32 0 74.5 3t68.5 6l26 3q12 3 17 34t5 51zM322 446l126 16v100q0 30 12 39.5t44 9.5v-142l114 17q0 -30 -4.5 -41t-19.5 -13q-51 -8 -90 -12v-270q0 -66 9.5 -88.5t38.5 -22.5q20 0 37.5 2.5t24.5 5.5l8 3
q4 -15 4 -31q0 -27 -87 -27q-52 0 -71.5 30.5t-19.5 127.5v264q-217 -26 -348 -26q0 -62 8 -100.5t25.5 -54.5t33.5 -20t44 -4q78 0 121 75q16 -20 16 -42q0 -12 -14.5 -30.5t-49.5 -35.5t-79 -17q-41 0 -68 9.5t-50 34.5t-33.5 73t-10.5 122q0 148 42 219t140 71
q49 0 83.5 -33t34.5 -114q0 -23 -6 -57.5t-15 -37.5z" />
    <glyph glyph-name="germandbls.ss05" horiz-adv-x="483" 
d="M376 452h-262v-420q0 -23 -7 -31.5t-25 -8.5q-10 0 -17.5 2t-10.5 4l-2 3q7 23 7 58v529q0 81 42 114.5t126 33.5q31 0 58 -8t41 -18t14 -17q0 -6 -3.5 -16t-6.5 -17l-4 -6q-40 32 -103 32q-59 0 -84 -29t-25 -101v-56h330q9 -16 -7 -48l-132 -200q66 -9 111 -50t45 -113
q0 -99 -51 -161.5t-144 -62.5q-39 0 -65 8t-35 17t-9 18q0 20 13 39q41 -29 93 -29q64 0 101.5 45t37.5 122q0 91 -81 118q-34 12 -99 14z" />
    <glyph glyph-name="z.ss05" horiz-adv-x="360" 
d="M248 452h-223q0 45 5 47q2 1 5 1h281q9 -16 -6 -48l-133 -200q66 -9 111 -49.5t45 -113.5q0 -99 -51 -161.5t-143 -62.5q-39 0 -66 8.5t-35.5 17.5t-8.5 17q0 20 13 39q43 -29 93 -29q64 0 102 45t38 122q0 90 -81 118q-35 12 -99 14z" />
    <glyph glyph-name="t_z.ss05" horiz-adv-x="518" 
d="M407 451h-255v-431q0 -15 -7 -17.5t-47 -2.5v451h-95q0 33 2 41t11 8h82v158q0 16 9 19t45 3v-180h323q10 -16 -6 -48l-132 -200q66 -9 110.5 -50t44.5 -113q0 -100 -49 -162t-141 -62q-36 0 -61 7.5t-33.5 16t-8.5 15.5q0 18 13 40q40 -26 88 -26q63 0 98.5 45t35.5 122
q0 90 -81 118q-35 12 -99 14z" />
    <glyph glyph-name="apple" horiz-adv-x="819" 
d="M409 710q163 0 261.5 -98t98.5 -262t-98.5 -262t-261.5 -98t-261.5 98t-98.5 262t98.5 262t261.5 98zM418 579q-26 0 -43.5 -17t-17.5 -46q0 -31 19 -54.5t54.5 -52t54.5 -53.5q19 25 54.5 53.5t55 52t19.5 54.5q0 29 -18 46t-44 17q-43 0 -67 -44q-24 44 -67 44z
M257 540q5 0 5 -12v-112q0 -12 -5 -12q-2 0 -6.5 0.5t-7.5 0.5q-18 0 -18 -17q0 -20 21 -20q11 0 21.5 2.5t17.5 2.5q6 0 15.5 -2.5t17.5 -2.5q21 0 21 20q0 17 -17 17q-2 0 -7 -0.5t-7 -0.5q-5 0 -5 12v112q0 12 5 12q3 0 7.5 -0.5t6.5 -0.5q6 0 11.5 5t5.5 12q0 18 -21 18
q-6 0 -16.5 -1.5t-17.5 -1.5q-8 0 -19 1.5t-17 1.5q-23 0 -23 -18q0 -6 5.5 -11.5t12.5 -5.5q3 0 7.5 0.5t6.5 0.5zM617 294q19 0 19 17q0 19 -20 19q-6 0 -16 -1.5t-16 -1.5q-7 0 -17 1.5t-15 1.5q-11 0 -16.5 -6t-5.5 -13q0 -17 18 -17h8q11 0 11 -12v-98l-70 128l-2 6
q-2 12 -19 12q-4 0 -12 -1t-14 -1q-7 0 -15.5 1t-10.5 1q-13 0 -17 -11q-5 11 -17 11q-5 0 -17.5 -1.5t-18.5 -1.5t-17 1.5t-15 1.5q-19 0 -19 -19q0 -18 19 -18q2 0 5 1q-4 -8 -16 -29.5t-14 -25.5l-34 55h2q22 0 22 17q0 19 -20 19q-7 0 -16 -2t-15 -2t-17.5 2t-17.5 2
q-20 0 -20 -19q0 -18 21 -18q2 0 5 0.5t5 0.5q4 0 5 -1l58 -94v-34q0 -8 -6 -8q-3 0 -6.5 1.5t-6.5 1.5q-18 0 -18 -19q0 -17 21 -17q7 0 18 2t17 2t17.5 -2t18.5 -2q22 0 22 18t-16 18q-5 0 -9.5 -1.5t-5.5 -1.5q-6 0 -6 8v36l58 91q2 3 4 3q4 0 7 -0.5t6 -0.5q12 0 16 9
q7 -9 15 -9q4 0 8 0.5t5 0.5q6 0 6 -13v-113q0 -12 -6 -12q-1 0 -6 1t-7 1q-17 0 -17 -17q0 -18 20 -18q4 0 17 2t20 2q8 0 18.5 -2t14.5 -2q21 0 21 17q0 18 -17 18q-2 0 -7 -1t-6 -1q-6 0 -6 13v97l68 -123q13 -24 31 -24q27 0 27 44v118q0 12 7 12h5z" />
    <glyph glyph-name="CR" horiz-adv-x="172" 
 />
    </font>
</defs>
</svg>
